<?xml version="1.0" encoding="utf-8"?>
<!-- Generator: Adobe Illustrator 18.1.1, SVG Export Plug-In . SVG Version: 6.00 Build 0)  -->
<svg version="1.1" xmlns="http://www.w3.org/2000/svg" xmlns:xlink="http://www.w3.org/1999/xlink" x="0px" y="0px"
	 viewBox="0 0 1616.012 732" enable-background="new 0 0 1616.012 732" xml:space="preserve">
<g id="Layer_1">
	<g>
		<path fill="#7AB800" d="M797.322,297.388c-16.883,0-28.188-12.048-28.188-27.703c0-15.655,11.305-27.666,28.188-27.666
			c16.844,0,28.111,12.085,28.111,27.666C825.434,285.34,814.166,297.388,797.322,297.388z M797.322,252.394
			c-9.67,0-15.322,6.544-15.322,17.291c0,10.858,5.652,17.291,15.322,17.291c9.594,0,15.246-6.433,15.246-17.291
			C812.568,258.938,806.916,252.394,797.322,252.394z"/>
		<path fill="#7AB800" d="M860.322,278.684v18.109h-12.568v-54.18h19.113c15.246,0,21.791,7.697,21.791,17.7
			c0,10.821-6.805,18.37-21.791,18.37H860.322z M860.322,269.201h6.545c6.545,0,9.223-3.272,9.223-8.888
			c0-4.945-2.9-8.292-9.223-8.292h-6.545V269.201z"/>
		<path fill="#7AB800" d="M946.451,242.613v9.668h-22.238v12.644h17.031v9.297h-17.031v12.903h22.238v9.668H911.57v-54.18H946.451z"
			/>
		<path fill="#7AB800" d="M983.643,244.547l25.732,32.538c-0.185-2.083-0.297-4.054-0.297-5.802v-28.67h11.082v54.18h-6.545
			c-1.934,0-3.162-0.483-4.389-2.082l-25.547-32.277c0.148,1.897,0.262,3.719,0.262,5.317v29.042h-11.082v-54.18h6.619
			C981.635,242.613,982.268,242.874,983.643,244.547z"/>
	</g>
	<g>
		<path fill="#7AB800" d="M784.529,365.041h2.008c1.859,0,3.199-0.595,4.016-1.747l12.197-17.701c1.34-1.934,2.938-2.491,5.43-2.491
			h10.932l-16.062,21.902c-1.154,1.6-2.381,2.566-3.682,3.272c1.896,0.707,3.42,1.822,4.723,3.867l16.361,25.138h-11.23
			c-2.863,0-3.904-0.818-4.908-2.306l-12.271-18.853c-0.893-1.376-2.119-1.896-4.463-1.896h-3.049v23.055h-12.568v-54.18h12.568
			V365.041z"/>
		<path fill="#7AB800" d="M855.115,345.035l25.732,32.538c-0.186-2.083-0.297-4.054-0.297-5.802v-28.67h11.082v54.18h-6.545
			c-1.934,0-3.162-0.483-4.389-2.082l-25.547-32.277c0.148,1.896,0.262,3.719,0.262,5.317v29.042h-11.082v-54.18h6.619
			C853.107,343.102,853.74,343.362,855.115,345.035z"/>
		<path fill="#7AB800" d="M943.775,397.876c-16.883,0-28.188-12.048-28.188-27.703c0-15.655,11.305-27.666,28.188-27.666
			c16.846,0,28.113,12.085,28.113,27.666C971.889,385.828,960.621,397.876,943.775,397.876z M943.775,352.882
			c-9.668,0-15.32,6.544-15.32,17.291c0,10.858,5.652,17.291,15.32,17.291c9.594,0,15.246-6.433,15.246-17.291
			C959.021,359.426,953.369,352.882,943.775,352.882z"/>
		<path fill="#7AB800" d="M985.654,343.102h10.56c2.193,0,3.719,1.078,4.164,2.715l7.438,28.261c0.482,1.822,1.041,3.942,1.301,6.21
			c0.484-2.343,1.115-4.388,1.674-6.21l8.775-28.261c0.447-1.376,2.008-2.715,4.092-2.715h3.717c2.195,0,3.607,1.041,4.166,2.715
			l8.701,28.261c0.559,1.748,1.189,3.682,1.637,5.913c0.408-2.194,0.818-4.165,1.264-5.913l7.438-28.261
			c0.408-1.45,2.008-2.715,4.09-2.715h9.893l-16.734,54.18h-11.379l-10.189-33.579c-0.334-1.041-0.742-2.305-1.078-3.681
			c-0.334,1.376-0.744,2.64-1.078,3.681l-10.338,33.579h-11.379L985.654,343.102z"/>
		<path fill="#7AB800" d="M1099.826,387.241h20.08v10.04h-32.65v-54.18h12.57V387.241z"/>
		<path fill="#7AB800" d="M1181.492,343.102v9.668h-22.236v12.644h17.031v9.297h-17.031v12.903h22.236v9.668h-34.881v-54.18
			H1181.492z"/>
		<path fill="#7AB800" d="M1228.947,397.281H1207.9v-54.18h21.047c16.846,0,28.113,11.49,28.113,27.071
			C1257.061,385.828,1245.793,397.281,1228.947,397.281z M1228.947,352.77h-8.404v34.844h8.404c9.594,0,15.246-6.619,15.246-17.44
			C1244.193,359.426,1238.541,352.77,1228.947,352.77z"/>
		<path fill="#7AB800" d="M1313.367,386.572v-8.219h-5.355c-1.598,0-2.527-0.93-2.527-2.23v-6.917h19.262v22.869
			c-5.541,4.054-11.898,5.801-20.75,5.801c-15.84,0-27.666-11.825-27.666-27.703c0-16.176,11.156-27.666,28.633-27.666
			c9.074,0,15.805,3.123,20.154,7.288l-3.643,5.541c-0.707,1.041-1.674,1.673-2.826,1.673c-0.744,0-1.525-0.26-2.307-0.743
			c-3.979-2.38-6.768-3.384-11.824-3.384c-9.371,0-15.32,6.916-15.32,17.291c0,11.453,6.693,18.035,15.766,18.035
			C1308.422,388.208,1310.988,387.576,1313.367,386.572z"/>
		<path fill="#7AB800" d="M1385.068,343.102v9.668h-22.236v12.644h17.031v9.297h-17.031v12.903h22.236v9.668h-34.881v-54.18
			H1385.068z"/>
	</g>
	<g>
		<path fill="#7AB800" d="M794.684,492.038c2.207,0,4.178-0.372,5.914-1.115c1.734-0.744,3.205-1.785,4.406-3.124
			c1.203-1.339,2.121-2.938,2.754-4.798c0.631-1.859,0.947-3.905,0.947-6.136v-32.394h7.178v32.394c0,3.074-0.49,5.926-1.469,8.554
			c-0.98,2.628-2.381,4.903-4.203,6.824c-1.822,1.922-4.047,3.428-6.676,4.519c-2.627,1.091-5.578,1.636-8.852,1.636
			c-3.271,0-6.223-0.545-8.85-1.636c-2.629-1.091-4.861-2.597-6.695-4.519c-1.834-1.921-3.242-4.196-4.221-6.824
			c-0.98-2.628-1.469-5.479-1.469-8.554v-32.394h7.178v32.355c0,2.231,0.316,4.277,0.947,6.137c0.633,1.859,1.551,3.459,2.752,4.798
			c1.203,1.339,2.678,2.387,4.426,3.143S792.477,492.038,794.684,492.038z"/>
		<path fill="#7AB800" d="M858.502,467.827h2.715c0.943,0,1.693-0.117,2.25-0.353c0.559-0.235,1.084-0.639,1.582-1.209
			l17.738-20.083c0.545-0.619,1.072-1.06,1.582-1.32c0.508-0.26,1.158-0.391,1.951-0.391h6.137l-20.307,22.947
			c-0.52,0.57-1.01,1.054-1.469,1.45s-0.947,0.719-1.469,0.967c0.693,0.223,1.303,0.558,1.822,1.004
			c0.521,0.446,1.066,1.004,1.637,1.674l21.199,25.252h-6.248c-0.473,0-0.869-0.037-1.191-0.111s-0.602-0.174-0.836-0.298
			c-0.236-0.124-0.453-0.284-0.65-0.483c-0.199-0.198-0.398-0.409-0.596-0.632l-18.408-21.161c-0.273-0.298-0.527-0.552-0.764-0.763
			s-0.508-0.391-0.818-0.539c-0.311-0.149-0.668-0.254-1.078-0.316c-0.408-0.062-0.91-0.093-1.506-0.093h-3.273v24.396h-7.178
			v-53.294h7.178V467.827z"/>
		<path fill="#7AB800" d="M931.469,475.526v22.239h-7.178v-53.294h15.062c3.371,0,6.285,0.342,8.74,1.023
			c2.453,0.682,4.48,1.668,6.08,2.956c1.6,1.29,2.783,2.846,3.551,4.668c0.77,1.822,1.154,3.861,1.154,6.117
			c0,1.885-0.299,3.645-0.893,5.281c-0.596,1.637-1.457,3.105-2.586,4.407c-1.127,1.302-2.504,2.411-4.127,3.328
			c-1.625,0.918-3.465,1.612-5.523,2.083c0.893,0.521,1.686,1.277,2.381,2.269l15.545,21.161h-6.396c-1.314,0-2.281-0.508-2.9-1.524
			l-13.836-19.042c-0.422-0.595-0.879-1.022-1.375-1.283c-0.496-0.26-1.24-0.39-2.232-0.39H931.469z M931.469,470.282h7.551
			c2.105,0,3.961-0.254,5.559-0.763c1.6-0.508,2.939-1.228,4.018-2.157s1.891-2.039,2.436-3.328s0.818-2.715,0.818-4.277
			c0-3.173-1.049-5.565-3.143-7.177c-2.096-1.612-5.213-2.418-9.354-2.418h-7.885V470.282z"/>
		<path fill="#7AB800" d="M1037.609,497.766h-5.578c-0.645,0-1.166-0.161-1.562-0.483s-0.693-0.731-0.893-1.228l-4.982-12.867
			h-23.914l-4.982,12.867c-0.174,0.446-0.473,0.844-0.893,1.19c-0.422,0.348-0.943,0.521-1.562,0.521h-5.578l21.309-53.294h7.328
			L1037.609,497.766z M1002.688,477.98h19.896l-8.367-21.682c-0.545-1.339-1.078-3.013-1.6-5.021
			c-0.271,1.017-0.539,1.952-0.799,2.808s-0.516,1.605-0.762,2.25L1002.688,477.98z"/>
		<path fill="#7AB800" d="M1075.209,497.766h-7.215v-53.294h7.215V497.766z"/>
		<path fill="#7AB800" d="M1116.955,444.714c0.309,0.161,0.662,0.49,1.059,0.985l30.869,40.166
			c-0.074-0.645-0.125-1.271-0.148-1.879c-0.025-0.606-0.039-1.195-0.039-1.767v-37.748h6.322v53.294h-3.645
			c-0.57,0-1.047-0.099-1.432-0.298c-0.385-0.198-0.762-0.532-1.133-1.004l-30.832-40.128c0.051,0.62,0.088,1.228,0.111,1.822
			c0.025,0.595,0.037,1.141,0.037,1.637v37.971h-6.322v-53.294h3.721C1116.168,444.472,1116.645,444.553,1116.955,444.714z"/>
		<path fill="#7AB800" d="M1223.188,444.472v5.877h-25.586v17.702h20.715v5.652h-20.715v18.187h25.586v5.876h-32.84v-53.294
			H1223.188z"/>
	</g>
	
		<rect x="548.31" y="38.281" transform="matrix(0.8011 0.5985 -0.5985 0.8011 186.0815 -309.5263)" fill="#7AB800" width="21.012" height="173.943"/>
	
		<rect x="482.279" y="95.406" transform="matrix(0.8951 0.4459 -0.4459 0.8951 112.9156 -205.3192)" fill="#7AB800" width="21.015" height="83.787"/>
	
		<rect x="446.232" y="31.701" transform="matrix(0.9603 0.2789 -0.2789 0.9603 45.3374 -123.5175)" fill="#7AB800" width="21.019" height="131.735"/>
	<polygon fill="#7AB800" points="411.174,154.535 390.269,152.372 398.88,69.057 419.792,71.222 	"/>
	<polygon fill="#7AB800" points="351.876,153.726 344.705,60.146 365.658,58.544 372.83,152.122 	"/>
	<polygon fill="#7AB800" points="314.347,161.911 298.078,99.771 318.407,94.448 334.665,156.589 	"/>
	
		<rect x="257.79" y="142.217" transform="matrix(0.4219 0.9066 -0.9066 0.4219 299.9241 -164.9579)" fill="#7AB800" width="43.061" height="21.005"/>
	<polygon fill="#7AB800" points="246.613,197.528 236.875,183.734 254.04,171.612 263.771,185.407 	"/>
	<polygon fill="#7AB800" points="218.593,223.811 169.313,175.43 184.031,160.431 233.313,208.81 	"/>
	<polygon fill="#7AB800" points="195.712,254.668 119.461,202.38 131.27,185.002 207.521,237.29 	"/>
	<polygon fill="#7AB800" points="178.712,289.113 130.694,267.831 139.21,248.623 187.231,269.907 	"/>
	<polygon fill="#7AB800" points="25.915,291.59 168.145,326.049 173.089,305.627 30.865,271.172 	"/>
	
		<rect x="58.743" y="340.186" transform="matrix(0.9983 0.0581 -0.0581 0.9983 20.5787 -5.9119)" fill="#7AB800" width="106.29" height="21.018"/>
	
		<rect x="104.213" y="346.606" transform="matrix(0.1209 0.9927 -0.9927 0.1209 496.3312 236.3611)" fill="#7AB800" width="21.008" height="103.606"/>
	
		<rect x="152.148" y="421.181" transform="matrix(0.2964 0.9551 -0.9551 0.2964 528.2128 149.4885)" fill="#7AB800" width="21.01" height="24.089"/>
	
		<rect x="139.588" y="441.704" transform="matrix(0.462 0.8869 -0.8869 0.462 511.1251 127.9516)" fill="#7AB800" width="21.013" height="87.167"/>
	
		<rect x="161.814" y="479.278" transform="matrix(0.613 0.7901 -0.7901 0.613 482.4689 67.5101)" fill="#7AB800" width="21.01" height="93.976"/>
	
		<rect x="194.479" y="513.841" transform="matrix(0.7443 0.6678 -0.6678 0.7443 426.1664 6.2016)" fill="#7AB800" width="21.01" height="91.606"/>
	
		<rect x="244.712" y="545.394" transform="matrix(0.8516 0.5242 -0.5242 0.8516 334.8285 -49.7129)" fill="#7AB800" width="21.016" height="42.288"/>
	<polygon fill="#7AB800" points="280.483,646.164 260.911,638.519 290.855,561.831 310.427,569.477 	"/>
	
		<rect x="319.743" y="575.678" transform="matrix(0.9815 0.1916 -0.1916 0.9815 123.67 -51.9146)" fill="#7AB800" width="21.012" height="75.551"/>
	<polygon fill="#7AB800" points="385.456,633.026 364.445,632.745 365.143,580.202 386.153,580.477 	"/>
	<polygon fill="#7AB800" points="420.361,679.377 403.547,579.165 424.273,575.685 441.084,675.896 	"/>
	
		<rect x="430.742" y="586.103" transform="matrix(0.3389 0.9408 -0.9408 0.3389 866.3851 -39.6924)" fill="#7AB800" width="61.386" height="21.007"/>
	<polygon fill="#7AB800" points="476.742,556.832 552.953,686.815 571.137,676.273 494.921,546.297 	"/>
	<polygon fill="#7AB800" points="521.201,548.626 509.587,536.705 524.771,522.176 536.39,534.095 	"/>
	<polygon fill="#7AB800" points="589.805,553.131 537.415,510.203 550.737,493.949 603.128,536.875 	"/>
	<polygon fill="#7AB800" points="614.066,509.247 560.56,479.531 570.756,461.161 624.269,490.873 	"/>
	<polygon fill="#7AB800" points="603.69,453.999 577.841,445.219 584.599,425.32 610.44,434.098 	"/>
	
		<rect x="589.826" y="393.513" transform="matrix(0.9891 0.1474 -0.1474 0.9891 66.4255 -88.5422)" fill="#7AB800" width="81.873" height="21.011"/>
	<polygon fill="#7AB800" points="592.856,370.179 592.188,349.177 644.152,347.535 644.822,368.543 	"/>
	
		<rect x="609.519" y="281.845" transform="matrix(0.2096 0.9778 -0.9778 0.2096 797.7496 -357.5213)" fill="#7AB800" width="21.013" height="65.713"/>
	<polygon fill="#7AB800" points="580.549,294.647 572.546,275.221 614,258.147 621.997,277.569 	"/>
	<polygon fill="#7AB800" points="564.502,259.746 553.163,242.053 662.887,171.689 674.232,189.381 	"/>
	<polygon fill="#7AB800" points="542.484,228.262 528.166,212.89 544.743,197.449 559.054,212.824 	"/>
</g>
<g id="Layer_2">
	<g>
		<path fill="#FF0000" d="M413.162,351.609c-0.561-1.648-1.112-3.433-1.656-5.353c-0.512,1.952-1.04,3.761-1.584,5.424
			c-0.544,1.665-1.056,3.104-1.536,4.32l-6.432,19.056h19.104l-6.433-19.151C414.21,354.689,413.722,353.258,413.162,351.609z"/>
		<path fill="#FF0000" d="M510.696,370.529l-0.471-15.395l-46.673,1.427l45.668-9.732l-3.211-15.064l-45.691,9.736l43.215-17.734
			l-5.848-14.25l-43.175,17.718l39.321-25.136l-8.297-12.979l-39.358,25.159l34.235-31.78l-10.479-11.289l-34.231,31.776
			l28.008-37.371l-12.326-9.236l-28.007,37.371l20.887-41.768l-13.775-6.889l-20.889,41.772l13.1-44.829l-14.785-4.32
			l-13.101,44.831l4.891-46.444l-15.318-1.613l-5.063,48.084l-3.774-48.202l-15.355,1.203l3.644,46.543l-11.888-45.143
			l-14.895,3.922l11.894,45.167l-19.763-42.318l-13.955,6.518l19.759,42.309L308,254.467l-12.568,8.902l27.005,38.123
			l-33.373-32.689l-10.777,11.004l33.354,32.669l-38.649-26.196l-8.643,12.75l38.665,26.206l-42.721-18.884l-6.227,14.088
			l42.719,18.883l-45.405-10.954l-3.611,14.973l45.392,10.951l-46.613-2.676l-0.883,15.377l46.635,2.677l-46.363,5.689l1.875,15.287
			l46.373-5.69l-44.612,13.874l4.574,14.707l44.587-13.866l-41.396,21.601l7.125,13.656l41.397-21.602l-36.878,28.642l9.447,12.164
			l36.882-28.645l-31.178,34.767l11.467,10.283l31.171-34.76l-24.47,39.766l13.117,8.072l24.482-39.785l-16.987,43.512l14.348,5.602
			l16.987-43.513l-8.95,45.845l15.117,2.951l8.946-45.825l-0.622,46.688l15.4,0.205l0.623-46.72l7.724,46.082l15.191-2.547
			l-7.718-46.046l15.809,43.927l14.492-5.217l-15.815-43.942l23.403,40.415l13.33-7.719l-23.396-40.403l30.231,35.583l11.738-9.973
			l-30.24-35.594l36.101,29.62l9.77-11.908l-36.125-29.64l40.836,22.72l7.488-13.459l-40.798-22.699l44.192,15.053l4.967-14.58
			l-44.215-15.061l46.195,6.928l2.285-15.232l-46.21-6.931L510.696,370.529z M373.634,373.281c0,4.288-0.696,8.225-2.089,11.808
			c-1.392,3.584-3.384,6.672-5.976,9.264c-2.592,2.593-5.744,4.608-9.456,6.049c-3.713,1.439-7.889,2.159-12.528,2.159
			c-4.672,0-8.864-0.72-12.575-2.159c-3.713-1.44-6.864-3.456-9.456-6.049c-2.593-2.592-4.577-5.68-5.952-9.264
			c-1.377-3.583-2.064-7.52-2.064-11.808v-41.424h16.225v41.376c0,2.464,0.312,4.664,0.936,6.6c0.624,1.937,1.527,3.584,2.712,4.944
			c1.184,1.36,2.632,2.399,4.344,3.119c1.712,0.721,3.656,1.08,5.832,1.08s4.12-0.359,5.832-1.08c1.712-0.72,3.16-1.752,4.345-3.096
			c1.183-1.344,2.088-2.983,2.712-4.92c0.624-1.936,0.936-4.136,0.936-6.6v-41.424h16.225V373.281z M434.307,401.793
			c-1.409,0-2.568-0.328-3.48-0.984c-0.912-0.655-1.544-1.495-1.896-2.52l-4.129-12.192H398.21l-4.128,12.192
			c-0.32,0.896-0.944,1.704-1.872,2.424c-0.929,0.72-2.063,1.08-3.408,1.08H376.13l27.072-69.936h16.608l27.071,69.936H434.307z"/>
	</g>
</g>
</svg>
