<?xml version="1.0" encoding="utf-8"?>
<!-- Generator: Adobe Illustrator 18.1.1, SVG Export Plug-In . SVG Version: 6.00 Build 0)  -->
<svg version="1.1" xmlns="http://www.w3.org/2000/svg" xmlns:xlink="http://www.w3.org/1999/xlink" x="0px" y="0px"
	 viewBox="0 0 1616.012 732" enable-background="new 0 0 1616.012 732" xml:space="preserve">
<g id="Layer_1">
	<g>
		<path fill="#7AB800" d="M797.322,297.388c-16.883,0-28.188-12.048-28.188-27.703c0-15.655,11.305-27.666,28.188-27.666
			c16.844,0,28.111,12.085,28.111,27.666C825.434,285.34,814.166,297.388,797.322,297.388z M797.322,252.394
			c-9.67,0-15.322,6.544-15.322,17.291c0,10.858,5.652,17.291,15.322,17.291c9.594,0,15.246-6.433,15.246-17.291
			C812.568,258.938,806.916,252.394,797.322,252.394z"/>
		<path fill="#7AB800" d="M860.322,278.684v18.109h-12.568v-54.18h19.113c15.246,0,21.791,7.697,21.791,17.7
			c0,10.821-6.805,18.37-21.791,18.37H860.322z M860.322,269.201h6.545c6.545,0,9.223-3.272,9.223-8.888
			c0-4.945-2.9-8.292-9.223-8.292h-6.545V269.201z"/>
		<path fill="#7AB800" d="M946.451,242.613v9.668h-22.238v12.644h17.031v9.297h-17.031v12.903h22.238v9.668H911.57v-54.18H946.451z"
			/>
		<path fill="#7AB800" d="M983.643,244.547l25.732,32.538c-0.185-2.083-0.297-4.054-0.297-5.802v-28.67h11.082v54.18h-6.545
			c-1.934,0-3.162-0.483-4.389-2.082l-25.547-32.277c0.148,1.897,0.262,3.719,0.262,5.317v29.042h-11.082v-54.18h6.619
			C981.635,242.613,982.268,242.874,983.643,244.547z"/>
	</g>
	<g>
		<path fill="#7AB800" d="M784.529,365.041h2.008c1.859,0,3.199-0.595,4.016-1.747l12.197-17.701c1.34-1.934,2.938-2.491,5.43-2.491
			h10.932l-16.062,21.902c-1.154,1.6-2.381,2.566-3.682,3.272c1.896,0.707,3.42,1.822,4.723,3.867l16.361,25.138h-11.23
			c-2.863,0-3.904-0.818-4.908-2.306l-12.271-18.853c-0.893-1.376-2.119-1.896-4.463-1.896h-3.049v23.055h-12.568v-54.18h12.568
			V365.041z"/>
		<path fill="#7AB800" d="M855.115,345.035l25.732,32.538c-0.186-2.083-0.297-4.054-0.297-5.802v-28.67h11.082v54.18h-6.545
			c-1.934,0-3.162-0.483-4.389-2.082l-25.547-32.277c0.148,1.896,0.262,3.719,0.262,5.317v29.042h-11.082v-54.18h6.619
			C853.107,343.102,853.74,343.362,855.115,345.035z"/>
		<path fill="#7AB800" d="M943.775,397.876c-16.883,0-28.188-12.048-28.188-27.703c0-15.655,11.305-27.666,28.188-27.666
			c16.846,0,28.113,12.085,28.113,27.666C971.889,385.828,960.621,397.876,943.775,397.876z M943.775,352.882
			c-9.668,0-15.32,6.544-15.32,17.291c0,10.858,5.652,17.291,15.32,17.291c9.594,0,15.246-6.433,15.246-17.291
			C959.021,359.426,953.369,352.882,943.775,352.882z"/>
		<path fill="#7AB800" d="M985.654,343.102h10.56c2.193,0,3.719,1.078,4.164,2.715l7.438,28.261c0.482,1.822,1.041,3.942,1.301,6.21
			c0.484-2.343,1.115-4.388,1.674-6.21l8.775-28.261c0.447-1.376,2.008-2.715,4.092-2.715h3.717c2.195,0,3.607,1.041,4.166,2.715
			l8.701,28.261c0.559,1.748,1.189,3.682,1.637,5.913c0.408-2.194,0.818-4.165,1.264-5.913l7.438-28.261
			c0.408-1.45,2.008-2.715,4.09-2.715h9.893l-16.734,54.18h-11.379l-10.189-33.579c-0.334-1.041-0.742-2.305-1.078-3.681
			c-0.334,1.376-0.744,2.64-1.078,3.681l-10.338,33.579h-11.379L985.654,343.102z"/>
		<path fill="#7AB800" d="M1099.826,387.241h20.08v10.04h-32.65v-54.18h12.57V387.241z"/>
		<path fill="#7AB800" d="M1181.492,343.102v9.668h-22.236v12.644h17.031v9.297h-17.031v12.903h22.236v9.668h-34.881v-54.18
			H1181.492z"/>
		<path fill="#7AB800" d="M1228.947,397.281H1207.9v-54.18h21.047c16.846,0,28.113,11.49,28.113,27.071
			C1257.061,385.828,1245.793,397.281,1228.947,397.281z M1228.947,352.77h-8.404v34.844h8.404c9.594,0,15.246-6.619,15.246-17.44
			C1244.193,359.426,1238.541,352.77,1228.947,352.77z"/>
		<path fill="#7AB800" d="M1313.367,386.572v-8.219h-5.355c-1.598,0-2.527-0.93-2.527-2.23v-6.917h19.262v22.869
			c-5.541,4.054-11.898,5.801-20.75,5.801c-15.84,0-27.666-11.825-27.666-27.703c0-16.176,11.156-27.666,28.633-27.666
			c9.074,0,15.805,3.123,20.154,7.288l-3.643,5.541c-0.707,1.041-1.674,1.673-2.826,1.673c-0.744,0-1.525-0.26-2.307-0.743
			c-3.979-2.38-6.768-3.384-11.824-3.384c-9.371,0-15.32,6.916-15.32,17.291c0,11.453,6.693,18.035,15.766,18.035
			C1308.422,388.208,1310.988,387.576,1313.367,386.572z"/>
		<path fill="#7AB800" d="M1385.068,343.102v9.668h-22.236v12.644h17.031v9.297h-17.031v12.903h22.236v9.668h-34.881v-54.18
			H1385.068z"/>
	</g>
	<g>
		<path fill="#7AB800" d="M781.891,477.832v19.934h-7.178v-53.294h15.732c3.371,0,6.303,0.391,8.795,1.172s4.557,1.891,6.191,3.328
			c1.637,1.438,2.857,3.175,3.664,5.207c0.805,2.033,1.209,4.302,1.209,6.806c0,2.479-0.434,4.748-1.303,6.806
			c-0.867,2.059-2.137,3.831-3.811,5.318s-3.752,2.647-6.23,3.478c-2.479,0.831-5.318,1.246-8.516,1.246H781.891z M781.891,472.104
			h8.555c2.057,0,3.873-0.272,5.447-0.818c1.574-0.545,2.895-1.308,3.961-2.287s1.873-2.15,2.418-3.515
			c0.545-1.363,0.818-2.863,0.818-4.5c0-3.396-1.049-6.049-3.143-7.958c-2.096-1.909-5.264-2.864-9.502-2.864h-8.555V472.104z"/>
		<path fill="#7AB800" d="M891.229,471.138c0,3.992-0.631,7.655-1.896,10.989c-1.264,3.335-3.049,6.205-5.355,8.609
			c-2.305,2.405-5.076,4.271-8.311,5.598c-3.236,1.326-6.812,1.989-10.73,1.989s-7.488-0.663-10.711-1.989s-5.986-3.192-8.293-5.598
			c-2.305-2.404-4.09-5.274-5.355-8.609c-1.264-3.334-1.896-6.997-1.896-10.989s0.633-7.655,1.896-10.99
			c1.266-3.334,3.051-6.21,5.355-8.628c2.307-2.417,5.07-4.295,8.293-5.634s6.793-2.009,10.711-2.009s7.494,0.67,10.73,2.009
			c3.234,1.339,6.006,3.217,8.311,5.634c2.307,2.418,4.092,5.294,5.355,8.628C890.598,463.482,891.229,467.146,891.229,471.138z
			 M883.828,471.138c0-3.272-0.445-6.211-1.338-8.814s-2.158-4.803-3.793-6.601c-1.637-1.798-3.621-3.181-5.951-4.147
			s-4.934-1.45-7.811-1.45c-2.852,0-5.441,0.483-7.771,1.45c-2.332,0.967-4.32,2.35-5.971,4.147
			c-1.648,1.798-2.918,3.997-3.811,6.601s-1.34,5.542-1.34,8.814s0.447,6.205,1.34,8.795c0.893,2.592,2.162,4.786,3.811,6.583
			c1.65,1.798,3.639,3.174,5.971,4.128c2.33,0.955,4.92,1.432,7.771,1.432c2.877,0,5.48-0.477,7.811-1.432
			c2.33-0.954,4.314-2.33,5.951-4.128c1.635-1.797,2.9-3.991,3.793-6.583C883.383,477.343,883.828,474.41,883.828,471.138z"/>
		<path fill="#7AB800" d="M931.32,475.526v22.239h-7.178v-53.294h15.062c3.371,0,6.285,0.342,8.738,1.023
			c2.455,0.682,4.482,1.668,6.082,2.956c1.598,1.29,2.781,2.846,3.551,4.668c0.768,1.822,1.152,3.861,1.152,6.117
			c0,1.885-0.297,3.645-0.893,5.281c-0.594,1.637-1.457,3.105-2.584,4.407c-1.129,1.302-2.504,2.411-4.129,3.328
			c-1.623,0.918-3.465,1.612-5.521,2.083c0.893,0.521,1.686,1.277,2.379,2.269l15.547,21.161h-6.398c-1.314,0-2.281-0.508-2.9-1.524
			l-13.834-19.042c-0.422-0.595-0.881-1.022-1.377-1.283c-0.496-0.26-1.24-0.39-2.23-0.39H931.32z M931.32,470.282h7.549
			c2.107,0,3.961-0.254,5.561-0.763c1.6-0.508,2.938-1.228,4.016-2.157s1.891-2.039,2.438-3.328
			c0.545-1.289,0.816-2.715,0.816-4.277c0-3.173-1.047-5.565-3.143-7.177c-2.094-1.612-5.213-2.418-9.352-2.418h-7.885V470.282z"/>
		<path fill="#7AB800" d="M1029.91,444.472v6.062h-17.219v47.231h-7.215v-47.231h-17.293v-6.062H1029.91z"/>
		<path fill="#7AB800" d="M1080.525,492.038c2.207,0,4.178-0.372,5.914-1.115c1.734-0.744,3.205-1.785,4.406-3.124
			c1.203-1.339,2.121-2.938,2.754-4.798c0.631-1.859,0.947-3.905,0.947-6.136v-32.394h7.178v32.394c0,3.074-0.49,5.926-1.469,8.554
			c-0.98,2.628-2.381,4.903-4.203,6.824c-1.822,1.922-4.047,3.428-6.676,4.519c-2.627,1.091-5.578,1.636-8.852,1.636
			c-3.271,0-6.223-0.545-8.85-1.636c-2.629-1.091-4.861-2.597-6.695-4.519c-1.834-1.921-3.242-4.196-4.221-6.824
			c-0.98-2.628-1.469-5.479-1.469-8.554v-32.394h7.178v32.355c0,2.231,0.316,4.277,0.947,6.137c0.633,1.859,1.551,3.459,2.752,4.798
			c1.203,1.339,2.678,2.387,4.426,3.143S1078.318,492.038,1080.525,492.038z"/>
		<path fill="#7AB800" d="M1160.188,492.521c1.438,0,2.758-0.067,3.961-0.204c1.201-0.136,2.336-0.341,3.402-0.613
			c1.066-0.273,2.07-0.602,3.012-0.986c0.943-0.384,1.885-0.823,2.828-1.32v-11.752h-8.258c-0.471,0-0.85-0.136-1.133-0.409
			c-0.285-0.272-0.428-0.606-0.428-1.004v-4.091h16.363v20.455c-1.34,0.967-2.734,1.81-4.184,2.528c-1.451,0.72-3,1.32-4.648,1.804
			c-1.65,0.483-3.416,0.843-5.301,1.079c-1.885,0.235-3.93,0.353-6.137,0.353c-3.867,0-7.412-0.663-10.637-1.989
			c-3.223-1.326-6-3.186-8.33-5.579c-2.33-2.392-4.146-5.262-5.447-8.609c-1.303-3.347-1.953-7.028-1.953-11.045
			c0-4.066,0.639-7.773,1.916-11.12c1.275-3.347,3.098-6.217,5.467-8.609c2.367-2.393,5.23-4.245,8.59-5.56
			s7.123-1.972,11.287-1.972c2.107,0,4.066,0.155,5.877,0.465c1.809,0.311,3.488,0.757,5.039,1.339
			c1.549,0.583,2.98,1.29,4.295,2.12c1.314,0.831,2.541,1.767,3.682,2.808l-2.045,3.272c-0.422,0.67-0.967,1.005-1.637,1.005
			c-0.396,0-0.83-0.137-1.301-0.409c-0.621-0.348-1.314-0.769-2.084-1.265c-0.768-0.496-1.703-0.973-2.807-1.432
			s-2.406-0.85-3.906-1.172s-3.277-0.483-5.336-0.483c-3,0-5.715,0.49-8.145,1.469c-2.43,0.98-4.5,2.381-6.211,4.203
			s-3.025,4.029-3.941,6.619c-0.918,2.592-1.377,5.499-1.377,8.722c0,3.372,0.477,6.378,1.432,9.019s2.301,4.878,4.035,6.713
			c1.736,1.835,3.793,3.235,6.174,4.202S1157.311,492.521,1160.188,492.521z"/>
		<path fill="#7AB800" d="M1257.178,497.766h-5.578c-0.645,0-1.166-0.161-1.562-0.483s-0.693-0.731-0.893-1.228l-4.982-12.867
			h-23.914l-4.982,12.867c-0.174,0.446-0.473,0.844-0.893,1.19c-0.422,0.348-0.943,0.521-1.562,0.521h-5.578l21.309-53.294h7.328
			L1257.178,497.766z M1222.256,477.98h19.896l-8.367-21.682c-0.545-1.339-1.078-3.013-1.6-5.021
			c-0.271,1.017-0.539,1.952-0.799,2.808s-0.516,1.605-0.762,2.25L1222.256,477.98z"/>
		<path fill="#7AB800" d="M1293.438,491.704h23.059v6.062h-30.273v-53.294h7.215V491.704z"/>
	</g>
	
		<rect x="548.31" y="38.281" transform="matrix(0.8011 0.5985 -0.5985 0.8011 186.0815 -309.5263)" fill="#7AB800" width="21.012" height="173.943"/>
	
		<rect x="482.279" y="95.406" transform="matrix(0.8951 0.4459 -0.4459 0.8951 112.9156 -205.3192)" fill="#7AB800" width="21.015" height="83.787"/>
	
		<rect x="446.232" y="31.701" transform="matrix(0.9603 0.2789 -0.2789 0.9603 45.3374 -123.5175)" fill="#7AB800" width="21.019" height="131.735"/>
	<polygon fill="#7AB800" points="411.174,154.535 390.269,152.372 398.88,69.057 419.792,71.222 	"/>
	<polygon fill="#7AB800" points="351.876,153.726 344.705,60.146 365.658,58.544 372.83,152.122 	"/>
	<polygon fill="#7AB800" points="314.347,161.911 298.078,99.771 318.407,94.448 334.665,156.589 	"/>
	
		<rect x="257.79" y="142.217" transform="matrix(0.4219 0.9066 -0.9066 0.4219 299.9241 -164.9579)" fill="#7AB800" width="43.061" height="21.005"/>
	<polygon fill="#7AB800" points="246.613,197.528 236.875,183.734 254.04,171.612 263.771,185.407 	"/>
	<polygon fill="#7AB800" points="218.593,223.811 169.313,175.43 184.031,160.431 233.313,208.81 	"/>
	<polygon fill="#7AB800" points="195.712,254.668 119.461,202.38 131.27,185.002 207.521,237.29 	"/>
	<polygon fill="#7AB800" points="178.712,289.113 130.694,267.831 139.21,248.623 187.231,269.907 	"/>
	<polygon fill="#7AB800" points="25.915,291.59 168.145,326.049 173.089,305.627 30.865,271.172 	"/>
	
		<rect x="58.743" y="340.186" transform="matrix(0.9983 0.0581 -0.0581 0.9983 20.5787 -5.9119)" fill="#7AB800" width="106.29" height="21.018"/>
	
		<rect x="104.213" y="346.606" transform="matrix(0.1209 0.9927 -0.9927 0.1209 496.3312 236.3611)" fill="#7AB800" width="21.008" height="103.606"/>
	
		<rect x="152.148" y="421.181" transform="matrix(0.2964 0.9551 -0.9551 0.2964 528.2128 149.4885)" fill="#7AB800" width="21.01" height="24.089"/>
	
		<rect x="139.588" y="441.704" transform="matrix(0.462 0.8869 -0.8869 0.462 511.1251 127.9516)" fill="#7AB800" width="21.013" height="87.167"/>
	
		<rect x="161.814" y="479.278" transform="matrix(0.613 0.7901 -0.7901 0.613 482.4689 67.5101)" fill="#7AB800" width="21.01" height="93.976"/>
	
		<rect x="194.479" y="513.841" transform="matrix(0.7443 0.6678 -0.6678 0.7443 426.1664 6.2016)" fill="#7AB800" width="21.01" height="91.606"/>
	
		<rect x="244.712" y="545.394" transform="matrix(0.8516 0.5242 -0.5242 0.8516 334.8285 -49.7129)" fill="#7AB800" width="21.016" height="42.288"/>
	<polygon fill="#7AB800" points="280.483,646.164 260.911,638.519 290.855,561.831 310.427,569.477 	"/>
	
		<rect x="319.743" y="575.678" transform="matrix(0.9815 0.1916 -0.1916 0.9815 123.67 -51.9146)" fill="#7AB800" width="21.012" height="75.551"/>
	<polygon fill="#7AB800" points="385.456,633.026 364.445,632.745 365.143,580.202 386.153,580.477 	"/>
	<polygon fill="#7AB800" points="420.361,679.377 403.547,579.165 424.273,575.685 441.084,675.896 	"/>
	
		<rect x="430.742" y="586.103" transform="matrix(0.3389 0.9408 -0.9408 0.3389 866.3851 -39.6924)" fill="#7AB800" width="61.386" height="21.007"/>
	<polygon fill="#7AB800" points="476.742,556.832 552.953,686.815 571.137,676.273 494.921,546.297 	"/>
	<polygon fill="#7AB800" points="521.201,548.626 509.587,536.705 524.771,522.176 536.39,534.095 	"/>
	<polygon fill="#7AB800" points="589.805,553.131 537.415,510.203 550.737,493.949 603.128,536.875 	"/>
	<polygon fill="#7AB800" points="614.066,509.247 560.56,479.531 570.756,461.161 624.269,490.873 	"/>
	<polygon fill="#7AB800" points="603.69,453.999 577.841,445.219 584.599,425.32 610.44,434.098 	"/>
	
		<rect x="589.826" y="393.513" transform="matrix(0.9891 0.1474 -0.1474 0.9891 66.4255 -88.5422)" fill="#7AB800" width="81.873" height="21.011"/>
	<polygon fill="#7AB800" points="592.856,370.179 592.188,349.177 644.152,347.535 644.822,368.543 	"/>
	
		<rect x="609.519" y="281.845" transform="matrix(0.2096 0.9778 -0.9778 0.2096 797.7496 -357.5213)" fill="#7AB800" width="21.013" height="65.713"/>
	<polygon fill="#7AB800" points="580.549,294.647 572.546,275.221 614,258.147 621.997,277.569 	"/>
	<polygon fill="#7AB800" points="564.502,259.746 553.163,242.053 662.887,171.689 674.232,189.381 	"/>
	<polygon fill="#7AB800" points="542.484,228.262 528.166,212.89 544.743,197.449 559.054,212.824 	"/>
</g>
<g id="Layer_2">
	<g>
		<path fill="#FF0000" d="M510.696,370.529l-0.471-15.395l-46.673,1.427l45.668-9.732l-3.211-15.064l-45.691,9.736l43.215-17.734
			l-5.848-14.25l-43.175,17.718l39.321-25.136l-8.297-12.979l-39.358,25.159l34.235-31.78l-10.479-11.289l-34.231,31.776
			l28.008-37.371l-12.326-9.236l-28.007,37.371l20.887-41.768l-13.775-6.889l-20.889,41.772l13.1-44.829l-14.785-4.32
			l-13.101,44.831l4.891-46.444l-15.318-1.613l-5.063,48.084l-3.774-48.202l-15.355,1.203l3.644,46.543l-11.888-45.143
			l-14.895,3.922l11.894,45.167l-19.763-42.318l-13.955,6.518l19.759,42.309L308,254.467l-12.568,8.902l27.005,38.123
			l-33.373-32.689l-10.777,11.004l33.354,32.669l-38.649-26.196l-8.643,12.75l38.665,26.206l-42.721-18.884l-6.227,14.088
			l42.719,18.883l-45.405-10.954l-3.611,14.973l45.392,10.951l-46.613-2.676l-0.883,15.377l46.635,2.677l-46.363,5.689l1.875,15.287
			l46.373-5.69l-44.612,13.874l4.574,14.707l44.587-13.866l-41.396,21.601l7.125,13.656l41.397-21.602l-36.878,28.642l9.447,12.164
			l36.882-28.645l-31.178,34.767l11.467,10.283l31.171-34.76l-24.47,39.766l13.117,8.072l24.482-39.785l-16.987,43.512l14.348,5.602
			l16.987-43.513l-8.95,45.845l15.117,2.951l8.946-45.825l-0.622,46.688l15.4,0.205l0.623-46.72l7.724,46.082l15.191-2.547
			l-7.718-46.046l15.809,43.927l14.492-5.217l-15.815-43.942l23.403,40.415l13.33-7.719l-23.396-40.403l30.231,35.583l11.738-9.973
			l-30.24-35.594l36.101,29.62l9.77-11.908l-36.125-29.64l40.836,22.72l7.488-13.459l-40.798-22.699l44.192,15.053l4.967-14.58
			l-44.215-15.061l46.195,6.928l2.285-15.232l-46.21-6.931L510.696,370.529z M375.266,364.305c-1.12,2.912-2.832,5.408-5.136,7.488
			s-5.225,3.704-8.76,4.872c-3.537,1.168-7.721,1.752-12.553,1.752h-8.447v23.376h-16.225v-69.936h24.672
			c4.928,0,9.16,0.584,12.696,1.752c3.535,1.168,6.448,2.776,8.736,4.823c2.287,2.049,3.976,4.464,5.063,7.248
			s1.632,5.793,1.632,9.024C376.945,358.193,376.386,361.394,375.266,364.305z M436.177,344.721h-19.68v57.072h-16.225v-57.072
			h-19.68v-12.863h55.584V344.721z"/>
		<path fill="#FF0000" d="M357.817,346.953c-0.977-0.943-2.208-1.672-3.695-2.185c-1.488-0.511-3.257-0.768-5.305-0.768h-8.447
			v22.176h8.447c4.225,0,7.264-1.008,9.12-3.023c1.855-2.017,2.784-4.832,2.784-8.448c0-1.6-0.24-3.056-0.72-4.368
			C359.521,349.025,358.794,347.897,357.817,346.953z"/>
	</g>
</g>
</svg>
