<?xml version="1.0" encoding="utf-8"?>
<!-- Generator: Adobe Illustrator 18.0.0, SVG Export Plug-In . SVG Version: 6.00 Build 0)  -->
<!DOCTYPE svg PUBLIC "-//W3C//DTD SVG 1.1//EN" "http://www.w3.org/Graphics/SVG/1.1/DTD/svg11.dtd">
<svg version="1.1" id="Layer_1" xmlns="http://www.w3.org/2000/svg" xmlns:xlink="http://www.w3.org/1999/xlink" x="0px" y="0px"
	 viewBox="0 0 1912 732" enable-background="new 0 0 1912 732" xml:space="preserve">
<g>
	<path fill="#7AB800" d="M783.3,305.7v30.2h-21v-90.3h31.9c6.4,0,11.8,0.8,16.4,2.3c4.6,1.5,8.3,3.6,11.3,6.2c3,2.6,5.1,5.8,6.5,9.4
		c1.4,3.6,2.1,7.5,2.1,11.7c0,4.5-0.7,8.6-2.2,12.4c-1.4,3.8-3.7,7-6.6,9.7c-3,2.7-6.7,4.8-11.3,6.3c-4.6,1.5-10,2.3-16.2,2.3H783.3
		z M783.3,289.9h10.9c5.5,0,9.4-1.3,11.8-3.9c2.4-2.6,3.6-6.2,3.6-10.9c0-2.1-0.3-3.9-0.9-5.6c-0.6-1.7-1.6-3.2-2.8-4.4
		c-1.3-1.2-2.9-2.2-4.8-2.8c-1.9-0.7-4.2-1-6.9-1h-10.9V289.9z"/>
	<path fill="#7AB800" d="M906.3,319.3c2.8,0,5.3-0.5,7.5-1.4c2.2-0.9,4.1-2.3,5.6-4c1.5-1.7,2.7-3.9,3.5-6.4
		c0.8-2.5,1.2-5.3,1.2-8.5v-53.5h21V299c0,5.5-0.9,10.6-2.7,15.3c-1.8,4.6-4.4,8.6-7.7,12c-3.3,3.3-7.4,6-12.2,7.8
		c-4.8,1.9-10.2,2.8-16.2,2.8c-6,0-11.4-0.9-16.2-2.8c-4.8-1.9-8.9-4.5-12.2-7.8c-3.3-3.3-5.9-7.3-7.7-12c-1.8-4.6-2.7-9.7-2.7-15.3
		v-53.5h21V299c0,3.2,0.4,6,1.2,8.5c0.8,2.5,2,4.6,3.5,6.4c1.5,1.8,3.4,3.1,5.6,4C900.9,318.8,903.5,319.3,906.3,319.3z"/>
	<path fill="#7AB800" d="M986,335.9v-90.3h33.2c6.2,0,11.6,0.6,15.9,1.7c4.4,1.2,8,2.8,10.7,4.9c2.8,2.1,4.8,4.7,6,7.7
		c1.3,3,1.9,6.4,1.9,10.1c0,2-0.3,4-0.9,5.9c-0.6,1.9-1.5,3.6-2.7,5.3c-1.2,1.7-2.8,3.2-4.8,4.5c-1.9,1.3-4.3,2.5-7,3.5
		c6,1.4,10.4,3.8,13.2,7c2.9,3.2,4.3,7.4,4.3,12.5c0,3.8-0.7,7.4-2.2,10.7c-1.5,3.3-3.7,6.2-6.5,8.6s-6.4,4.4-10.6,5.8
		c-4.2,1.4-9,2.1-14.4,2.1H986z M1007,283.5h10.9c2.3,0,4.4-0.2,6.3-0.5c1.9-0.3,3.4-0.9,4.7-1.7c1.3-0.8,2.3-2,3-3.4
		c0.7-1.4,1-3.3,1-5.5c0-2.1-0.3-3.9-0.8-5.4s-1.4-2.6-2.5-3.4c-1.1-0.9-2.5-1.5-4.2-1.9c-1.7-0.4-3.8-0.6-6.1-0.6H1007V283.5z
		 M1007,297.5V320h14.8c2.8,0,5-0.4,6.8-1.1c1.8-0.7,3.1-1.6,4.1-2.7c1-1.1,1.7-2.4,2-3.8c0.4-1.4,0.6-2.8,0.6-4.3
		c0-1.7-0.2-3.1-0.7-4.5c-0.4-1.3-1.2-2.4-2.2-3.3s-2.4-1.6-4.2-2.1c-1.7-0.5-3.9-0.7-6.6-0.7H1007z"/>
	<path fill="#7AB800" d="M1115.6,319.1h33.5v16.7h-54.4v-90.3h21V319.1z"/>
	<path fill="#7AB800" d="M1209.2,335.9h-21.1v-90.3h21.1V335.9z"/>
	<path fill="#7AB800" d="M1313.9,312.5c0.5,0,1,0.1,1.5,0.3c0.5,0.2,1,0.5,1.4,1l8.3,8.7c-3.6,4.8-8.2,8.3-13.7,10.8
		c-5.5,2.4-12,3.6-19.4,3.6c-6.9,0-13-1.2-18.4-3.5c-5.4-2.3-10-5.6-13.8-9.7c-3.8-4.1-6.7-9-8.7-14.6c-2-5.6-3-11.8-3-18.4
		c0-6.7,1.2-12.9,3.5-18.6c2.3-5.6,5.5-10.5,9.7-14.6c4.2-4.1,9.1-7.3,14.9-9.5c5.8-2.3,12.2-3.4,19.2-3.4c3.4,0,6.6,0.3,9.6,0.9
		c3,0.6,5.8,1.4,8.4,2.5c2.6,1.1,5,2.3,7.2,3.8c2.2,1.5,4.1,3.1,5.8,4.9l-7.1,9.5c-0.5,0.6-1,1.1-1.6,1.6c-0.6,0.5-1.5,0.7-2.6,0.7
		c-0.7,0-1.4-0.2-2.1-0.5c-0.7-0.3-1.4-0.7-2.1-1.2c-0.7-0.5-1.6-1-2.4-1.6c-0.9-0.6-1.9-1.1-3.2-1.5c-1.2-0.5-2.6-0.9-4.3-1.2
		c-1.6-0.3-3.5-0.5-5.7-0.5c-3.8,0-7.3,0.7-10.4,2c-3.1,1.3-5.8,3.3-8.1,5.8c-2.3,2.5-4,5.5-5.3,9.1c-1.3,3.6-1.9,7.5-1.9,12
		c0,4.6,0.6,8.7,1.9,12.3c1.3,3.6,3,6.6,5.1,9.1c2.2,2.5,4.7,4.3,7.6,5.6c2.9,1.3,6,1.9,9.3,1.9c1.9,0,3.6-0.1,5.2-0.3
		c1.6-0.2,3-0.5,4.4-1c1.3-0.5,2.6-1,3.8-1.8c1.2-0.7,2.4-1.6,3.7-2.7c0.5-0.4,1-0.8,1.6-1C1312.7,312.6,1313.3,312.5,1313.9,312.5z
		"/>
	<path fill="#7AB800" d="M842.7,451.5c0,6.7-1.1,12.7-3.2,18.2c-2.1,5.5-5.1,10.1-8.9,14c-3.8,3.9-8.5,6.9-13.8,9
		c-5.4,2.1-11.3,3.2-17.9,3.2h-33.2V407h33.2c6.5,0,12.5,1.1,17.9,3.2c5.4,2.1,10,5.1,13.8,9.1c3.8,3.9,6.8,8.6,8.9,14
		C841.6,438.8,842.7,444.8,842.7,451.5z M830.3,451.5c0-5.5-0.7-10.3-2.2-14.6c-1.5-4.3-3.6-7.9-6.3-10.9c-2.7-3-6-5.2-9.9-6.8
		c-3.9-1.6-8.2-2.4-13-2.4h-21.1v69.4h21.1c4.8,0,9.1-0.8,13-2.4c3.9-1.6,7.2-3.8,9.9-6.8c2.7-3,4.8-6.6,6.3-10.9
		C829.6,461.8,830.3,456.9,830.3,451.5z"/>
	<path fill="#7AB800" d="M968.8,451.5c0,6.7-1.1,12.8-3.2,18.3c-2.1,5.6-5.1,10.3-8.9,14.4c-3.8,4-8.5,7.1-13.9,9.3
		c-5.4,2.2-11.4,3.3-17.9,3.3c-6.5,0-12.5-1.1-17.9-3.3c-5.4-2.2-10-5.3-13.8-9.3c-3.8-4-6.8-8.8-8.9-14.4
		c-2.1-5.6-3.2-11.7-3.2-18.3c0-6.7,1.1-12.8,3.2-18.3c2.1-5.6,5.1-10.4,8.9-14.4c3.8-4,8.5-7.2,13.8-9.4c5.4-2.2,11.3-3.3,17.9-3.3
		c6.5,0,12.5,1.1,17.9,3.3c5.4,2.2,10,5.4,13.9,9.4c3.8,4,6.8,8.8,8.9,14.4C967.8,438.7,968.8,444.8,968.8,451.5z M956.5,451.5
		c0-5.5-0.7-10.4-2.2-14.7c-1.5-4.3-3.6-8-6.3-11c-2.7-3-6-5.3-9.9-6.9c-3.9-1.6-8.2-2.4-13-2.4c-4.8,0-9.1,0.8-13,2.4
		s-7.2,3.9-10,6.9c-2.8,3-4.9,6.7-6.4,11s-2.2,9.2-2.2,14.7s0.7,10.3,2.2,14.7s3.6,8,6.4,11c2.7,3,6.1,5.3,10,6.9
		c3.9,1.6,8.2,2.4,13,2.4c4.8,0,9.1-0.8,13-2.4c3.9-1.6,7.2-3.9,9.9-6.9c2.7-3,4.8-6.7,6.3-11C955.7,461.8,956.5,456.9,956.5,451.5z
		"/>
	<path fill="#7AB800" d="M1057.8,466.9c0.4,1.1,0.9,2.2,1.3,3.3c0.4-1.2,0.8-2.3,1.3-3.3c0.5-1.1,1-2.1,1.5-3.2l30.1-54.6
		c0.5-1,1.1-1.5,1.7-1.7c0.6-0.2,1.4-0.3,2.5-0.3h8.9v88.8h-10.5v-65.3c0-0.9,0-1.8,0.1-2.8c0-1,0.1-2,0.2-3l-30.4,55.6
		c-1,1.9-2.5,2.8-4.3,2.8h-1.7c-1.9,0-3.3-0.9-4.3-2.8l-31.1-55.7c0.1,1.1,0.2,2.1,0.3,3.2c0.1,1,0.1,2,0.1,2.9v65.3h-10.5V407h8.9
		c1.1,0,1.9,0.1,2.5,0.3c0.6,0.2,1.1,0.8,1.7,1.7l30.7,54.7C1056.8,464.7,1057.3,465.8,1057.8,466.9z"/>
	<path fill="#7AB800" d="M1227,495.9h-9.3c-1.1,0-1.9-0.3-2.6-0.8c-0.7-0.5-1.2-1.2-1.5-2l-8.3-21.5h-39.9l-8.3,21.5
		c-0.3,0.7-0.8,1.4-1.5,2c-0.7,0.6-1.6,0.9-2.6,0.9h-9.3l35.5-88.8h12.2L1227,495.9z M1168.8,462.9h33.2l-14-36.1
		c-0.9-2.2-1.8-5-2.7-8.4c-0.5,1.7-0.9,3.3-1.3,4.7c-0.4,1.4-0.9,2.7-1.3,3.8L1168.8,462.9z"/>
	<path fill="#7AB800" d="M1279.8,495.9h-12V407h12V495.9z"/>
	<path fill="#7AB800" d="M1339.4,407.4c0.5,0.3,1.1,0.8,1.8,1.6l51.5,67c-0.1-1.1-0.2-2.1-0.2-3.1s-0.1-2-0.1-2.9V407h10.5v88.8
		h-6.1c-1,0-1.7-0.2-2.4-0.5c-0.6-0.3-1.3-0.9-1.9-1.7l-51.4-66.9c0.1,1,0.1,2,0.2,3s0.1,1.9,0.1,2.7v63.3h-10.5V407h6.2
		C1338.1,407,1338.9,407.1,1339.4,407.4z"/>
</g>
<polygon fill="#FF0000" points="510.7,370.5 510.2,355.1 463.6,356.6 509.2,346.8 506,331.8 460.3,341.5 503.5,323.8 497.7,309.5 
	454.5,327.2 493.8,302.1 485.5,289.1 446.2,314.3 480.4,282.5 469.9,271.2 435.7,303 463.7,265.6 451.4,256.4 423.4,293.8 
	444.3,252 430.5,245.1 409.6,286.9 422.7,242 407.9,237.7 394.8,282.5 399.7,236.1 384.4,234.5 379.3,282.6 375.6,234.4 
	360.2,235.6 363.8,282.1 352,237 337.1,240.9 349,286.1 329.2,243.7 315.2,250.3 335,292.6 308,254.5 295.4,263.4 322.4,301.5 
	289.1,268.8 278.3,279.8 311.6,312.5 273,286.3 264.3,299 303,325.2 260.3,306.4 254.1,320.4 296.8,339.3 251.4,328.4 247.8,343.3 
	293.2,354.3 246.5,351.6 245.7,367 292.3,369.7 245.9,375.4 247.8,390.6 294.2,385 249.6,398.8 254.1,413.5 298.7,399.7 
	257.3,421.3 264.5,434.9 305.9,413.3 269,442 278.4,454.1 315.3,425.5 284.1,460.3 295.6,470.5 326.8,435.8 302.3,475.5 
	315.4,483.6 339.9,443.8 322.9,487.3 337.3,492.9 354.2,449.4 345.3,495.3 360.4,498.2 369.4,452.4 368.7,499.1 384.1,499.3 
	384.8,452.6 392.5,498.7 407.7,496.1 400,450.1 415.8,494 430.3,488.8 414.4,444.8 437.8,485.2 451.2,477.5 427.8,437.1 458,472.7 
	469.8,462.7 439.5,427.1 475.6,456.8 485.4,444.9 449.3,415.2 490.1,437.9 497.6,424.5 456.8,401.8 501,416.8 505.9,402.3 
	461.7,387.2 507.9,394.1 510.2,378.9 464,372 "/>
<rect x="548.3" y="38.3" transform="matrix(0.8011 0.5985 -0.5985 0.8011 186.0815 -309.5263)" fill="#7AB800" width="21" height="173.9"/>
<rect x="482.3" y="95.4" transform="matrix(0.8951 0.4459 -0.4459 0.8951 112.9156 -205.3192)" fill="#7AB800" width="21" height="83.8"/>
<rect x="446.2" y="31.7" transform="matrix(0.9603 0.2789 -0.2789 0.9603 45.3374 -123.5175)" fill="#7AB800" width="21" height="131.7"/>
<polygon fill="#7AB800" points="411.2,154.5 390.3,152.4 398.9,69.1 419.8,71.2 "/>
<polygon fill="#7AB800" points="351.9,153.7 344.7,60.1 365.7,58.5 372.8,152.1 "/>
<polygon fill="#7AB800" points="314.3,161.9 298.1,99.8 318.4,94.4 334.7,156.6 "/>
<rect x="257.8" y="142.2" transform="matrix(0.4219 0.9066 -0.9066 0.4219 299.9241 -164.9579)" fill="#7AB800" width="43.1" height="21"/>
<polygon fill="#7AB800" points="246.6,197.5 236.9,183.7 254,171.6 263.8,185.4 "/>
<polygon fill="#7AB800" points="218.6,223.8 169.3,175.4 184,160.4 233.3,208.8 "/>
<polygon fill="#7AB800" points="195.7,254.7 119.5,202.4 131.3,185 207.5,237.3 "/>
<polygon fill="#7AB800" points="178.7,289.1 130.7,267.8 139.2,248.6 187.2,269.9 "/>
<polygon fill="#7AB800" points="25.9,291.6 168.1,326 173.1,305.6 30.9,271.2 "/>
<rect x="58.7" y="340.2" transform="matrix(0.9983 5.813989e-02 -5.813989e-02 0.9983 20.5787 -5.9119)" fill="#7AB800" width="106.3" height="21"/>
<rect x="104.2" y="346.6" transform="matrix(0.1209 0.9927 -0.9927 0.1209 496.3312 236.3611)" fill="#7AB800" width="21" height="103.6"/>
<rect x="152.1" y="421.2" transform="matrix(0.2964 0.9551 -0.9551 0.2964 528.2128 149.4885)" fill="#7AB800" width="21" height="24.1"/>
<rect x="139.6" y="441.7" transform="matrix(0.462 0.8869 -0.8869 0.462 511.1251 127.9516)" fill="#7AB800" width="21" height="87.2"/>
<rect x="161.8" y="479.3" transform="matrix(0.613 0.7901 -0.7901 0.613 482.4689 67.5101)" fill="#7AB800" width="21" height="94"/>
<rect x="194.5" y="513.8" transform="matrix(0.7443 0.6678 -0.6678 0.7443 426.1664 6.2016)" fill="#7AB800" width="21" height="91.6"/>
<rect x="244.7" y="545.4" transform="matrix(0.8516 0.5242 -0.5242 0.8516 334.8285 -49.7129)" fill="#7AB800" width="21" height="42.3"/>
<polygon fill="#7AB800" points="280.5,646.2 260.9,638.5 290.9,561.8 310.4,569.5 "/>
<rect x="319.7" y="575.7" transform="matrix(0.9815 0.1916 -0.1916 0.9815 123.67 -51.9146)" fill="#7AB800" width="21" height="75.6"/>
<polygon fill="#7AB800" points="385.5,633 364.4,632.7 365.1,580.2 386.2,580.5 "/>
<polygon fill="#7AB800" points="420.4,679.4 403.5,579.2 424.3,575.7 441.1,675.9 "/>
<rect x="430.7" y="586.1" transform="matrix(0.3389 0.9408 -0.9408 0.3389 866.3851 -39.6924)" fill="#7AB800" width="61.4" height="21"/>
<polygon fill="#7AB800" points="476.7,556.8 553,686.8 571.1,676.3 494.9,546.3 "/>
<polygon fill="#7AB800" points="521.2,548.6 509.6,536.7 524.8,522.2 536.4,534.1 "/>
<polygon fill="#7AB800" points="589.8,553.1 537.4,510.2 550.7,493.9 603.1,536.9 "/>
<polygon fill="#7AB800" points="614.1,509.2 560.6,479.5 570.8,461.2 624.3,490.9 "/>
<polygon fill="#7AB800" points="603.7,454 577.8,445.2 584.6,425.3 610.4,434.1 "/>
<rect x="589.8" y="393.5" transform="matrix(0.9891 0.1474 -0.1474 0.9891 66.4255 -88.5422)" fill="#7AB800" width="81.9" height="21"/>
<polygon fill="#7AB800" points="592.9,370.2 592.2,349.2 644.2,347.5 644.8,368.5 "/>
<rect x="609.5" y="281.8" transform="matrix(0.2096 0.9778 -0.9778 0.2096 797.7496 -357.5213)" fill="#7AB800" width="21" height="65.7"/>
<polygon fill="#7AB800" points="580.5,294.6 572.5,275.2 614,258.1 622,277.6 "/>
<polygon fill="#7AB800" points="564.5,259.7 553.2,242.1 662.9,171.7 674.2,189.4 "/>
<polygon fill="#7AB800" points="542.5,228.3 528.2,212.9 544.7,197.4 559.1,212.8 "/>
<path fill="#FFFFFF" d="M404.1,312.9c-7.2,0-13.9,2.4-19.2,6.5v-5.7h-12.5v56.7c-5.3-4.1-12-6.5-19.2-6.5
	c-17.5,0-31.8,14.3-31.8,31.8c0,17.5,14.3,31.8,31.8,31.8c7.2,0,13.9-2.4,19.2-6.5v5.7h12.5V370c5.3,4.1,12,6.5,19.2,6.5
	c17.5,0,31.8-14.3,31.8-31.8C435.9,327.2,421.6,312.9,404.1,312.9z M353.1,414.9c-10.6,0-19.2-8.6-19.2-19.2
	c0-10.6,8.6-19.2,19.2-19.2c10.6,0,19.2,8.6,19.2,19.2C372.3,406.3,363.7,414.9,353.1,414.9z M404.1,363.9
	c-10.6,0-19.2-8.6-19.2-19.2c0-10.6,8.6-19.2,19.2-19.2c10.6,0,19.2,8.6,19.2,19.2C423.3,355.3,414.7,363.9,404.1,363.9z"/>
</svg>
