<?xml version="1.0" encoding="utf-8"?>
<!-- Generator: Adobe Illustrator 18.1.1, SVG Export Plug-In . SVG Version: 6.00 Build 0)  -->
<svg version="1.1" xmlns="http://www.w3.org/2000/svg" xmlns:xlink="http://www.w3.org/1999/xlink" x="0px" y="0px"
	 viewBox="0 0 1616.012 732" enable-background="new 0 0 1616.012 732" xml:space="preserve">
<g id="Layer_1">
	<g>
		<path fill="#7AB800" d="M797.322,297.388c-16.883,0-28.188-12.048-28.188-27.703c0-15.655,11.305-27.666,28.188-27.666
			c16.844,0,28.111,12.085,28.111,27.666C825.434,285.34,814.166,297.388,797.322,297.388z M797.322,252.394
			c-9.67,0-15.322,6.544-15.322,17.291c0,10.858,5.652,17.291,15.322,17.291c9.594,0,15.246-6.433,15.246-17.291
			C812.568,258.938,806.916,252.394,797.322,252.394z"/>
		<path fill="#7AB800" d="M860.322,278.684v18.109h-12.568v-54.18h19.113c15.246,0,21.791,7.697,21.791,17.7
			c0,10.821-6.805,18.37-21.791,18.37H860.322z M860.322,269.201h6.545c6.545,0,9.223-3.272,9.223-8.888
			c0-4.945-2.9-8.292-9.223-8.292h-6.545V269.201z"/>
		<path fill="#7AB800" d="M946.451,242.613v9.668h-22.238v12.644h17.031v9.297h-17.031v12.903h22.238v9.668H911.57v-54.18H946.451z"
			/>
		<path fill="#7AB800" d="M983.643,244.547l25.732,32.538c-0.185-2.083-0.297-4.054-0.297-5.802v-28.67h11.082v54.18h-6.545
			c-1.934,0-3.162-0.483-4.389-2.082l-25.547-32.277c0.148,1.897,0.262,3.719,0.262,5.317v29.042h-11.082v-54.18h6.619
			C981.635,242.613,982.268,242.874,983.643,244.547z"/>
	</g>
	<g>
		<path fill="#7AB800" d="M784.529,365.041h2.008c1.859,0,3.199-0.595,4.016-1.747l12.197-17.701c1.34-1.934,2.938-2.491,5.43-2.491
			h10.932l-16.062,21.902c-1.154,1.6-2.381,2.566-3.682,3.272c1.896,0.707,3.42,1.822,4.723,3.867l16.361,25.138h-11.23
			c-2.863,0-3.904-0.818-4.908-2.306l-12.271-18.853c-0.893-1.376-2.119-1.896-4.463-1.896h-3.049v23.055h-12.568v-54.18h12.568
			V365.041z"/>
		<path fill="#7AB800" d="M855.115,345.035l25.732,32.538c-0.186-2.083-0.297-4.054-0.297-5.802v-28.67h11.082v54.18h-6.545
			c-1.934,0-3.162-0.483-4.389-2.082l-25.547-32.277c0.148,1.896,0.262,3.719,0.262,5.317v29.042h-11.082v-54.18h6.619
			C853.107,343.102,853.74,343.362,855.115,345.035z"/>
		<path fill="#7AB800" d="M943.775,397.876c-16.883,0-28.188-12.048-28.188-27.703c0-15.655,11.305-27.666,28.188-27.666
			c16.846,0,28.113,12.085,28.113,27.666C971.889,385.828,960.621,397.876,943.775,397.876z M943.775,352.882
			c-9.668,0-15.32,6.544-15.32,17.291c0,10.858,5.652,17.291,15.32,17.291c9.594,0,15.246-6.433,15.246-17.291
			C959.021,359.426,953.369,352.882,943.775,352.882z"/>
		<path fill="#7AB800" d="M985.654,343.102h10.56c2.193,0,3.719,1.078,4.164,2.715l7.438,28.261c0.482,1.822,1.041,3.942,1.301,6.21
			c0.484-2.343,1.115-4.388,1.674-6.21l8.775-28.261c0.447-1.376,2.008-2.715,4.092-2.715h3.717c2.195,0,3.607,1.041,4.166,2.715
			l8.701,28.261c0.559,1.748,1.189,3.682,1.637,5.913c0.408-2.194,0.818-4.165,1.264-5.913l7.438-28.261
			c0.408-1.45,2.008-2.715,4.09-2.715h9.893l-16.734,54.18h-11.379l-10.189-33.579c-0.334-1.041-0.742-2.305-1.078-3.681
			c-0.334,1.376-0.744,2.64-1.078,3.681l-10.338,33.579h-11.379L985.654,343.102z"/>
		<path fill="#7AB800" d="M1099.826,387.241h20.08v10.04h-32.65v-54.18h12.57V387.241z"/>
		<path fill="#7AB800" d="M1181.492,343.102v9.668h-22.236v12.644h17.031v9.297h-17.031v12.903h22.236v9.668h-34.881v-54.18
			H1181.492z"/>
		<path fill="#7AB800" d="M1228.947,397.281H1207.9v-54.18h21.047c16.846,0,28.113,11.49,28.113,27.071
			C1257.061,385.828,1245.793,397.281,1228.947,397.281z M1228.947,352.77h-8.404v34.844h8.404c9.594,0,15.246-6.619,15.246-17.44
			C1244.193,359.426,1238.541,352.77,1228.947,352.77z"/>
		<path fill="#7AB800" d="M1313.367,386.572v-8.219h-5.355c-1.598,0-2.527-0.93-2.527-2.23v-6.917h19.262v22.869
			c-5.541,4.054-11.898,5.801-20.75,5.801c-15.84,0-27.666-11.825-27.666-27.703c0-16.176,11.156-27.666,28.633-27.666
			c9.074,0,15.805,3.123,20.154,7.288l-3.643,5.541c-0.707,1.041-1.674,1.673-2.826,1.673c-0.744,0-1.525-0.26-2.307-0.743
			c-3.979-2.38-6.768-3.384-11.824-3.384c-9.371,0-15.32,6.916-15.32,17.291c0,11.453,6.693,18.035,15.766,18.035
			C1308.422,388.208,1310.988,387.576,1313.367,386.572z"/>
		<path fill="#7AB800" d="M1385.068,343.102v9.668h-22.236v12.644h17.031v9.297h-17.031v12.903h22.236v9.668h-34.881v-54.18
			H1385.068z"/>
	</g>
	<g>
		<path fill="#7AB800" d="M801.1,480.379c0.26,0.657,0.514,1.32,0.762,1.99c0.248-0.694,0.508-1.357,0.781-1.99
			c0.273-0.632,0.582-1.27,0.93-1.915l18.037-32.765c0.322-0.57,0.658-0.917,1.006-1.041c0.346-0.124,0.842-0.187,1.486-0.187h5.318
			v53.294h-6.322v-39.161c0-0.521,0.012-1.078,0.037-1.674c0.025-0.595,0.062-1.202,0.111-1.822l-18.26,33.322
			c-0.621,1.116-1.488,1.674-2.604,1.674h-1.041c-1.115,0-1.984-0.558-2.604-1.674l-18.67-33.434
			c0.074,0.645,0.131,1.277,0.168,1.896c0.037,0.62,0.055,1.19,0.055,1.711v39.161h-6.322v-53.294h5.318
			c0.645,0,1.141,0.062,1.488,0.187s0.682,0.471,1.004,1.041l18.41,32.802C800.535,479.096,800.84,479.723,801.1,480.379z"/>
		<path fill="#7AB800" d="M908.561,497.766h-5.578c-0.645,0-1.166-0.161-1.562-0.483s-0.693-0.731-0.893-1.228l-4.982-12.867
			h-23.914l-4.982,12.867c-0.174,0.446-0.473,0.844-0.893,1.19c-0.422,0.348-0.943,0.521-1.562,0.521h-5.578l21.309-53.294h7.328
			L908.561,497.766z M873.639,477.98h19.896l-8.367-21.682c-0.545-1.339-1.078-3.013-1.6-5.021
			c-0.271,1.017-0.539,1.952-0.799,2.808s-0.516,1.605-0.762,2.25L873.639,477.98z"/>
		<path fill="#7AB800" d="M975.168,486.758c0.396,0,0.756,0.161,1.078,0.483l2.826,3.086c-2.182,2.529-4.828,4.5-7.939,5.914
			c-3.111,1.413-6.861,2.119-11.25,2.119c-3.844,0-7.326-0.663-10.451-1.989c-3.123-1.326-5.789-3.186-7.996-5.579
			c-2.207-2.392-3.918-5.262-5.133-8.609c-1.215-3.347-1.822-7.028-1.822-11.045s0.652-7.698,1.953-11.046
			c1.303-3.347,3.131-6.223,5.486-8.628c2.355-2.404,5.174-4.271,8.461-5.597c3.285-1.326,6.91-1.99,10.877-1.99
			c3.918,0,7.295,0.608,10.135,1.822c2.838,1.215,5.361,2.864,7.568,4.946l-2.344,3.311c-0.174,0.248-0.371,0.452-0.594,0.613
			c-0.225,0.161-0.547,0.241-0.967,0.241c-0.324,0-0.664-0.117-1.023-0.353s-0.787-0.526-1.283-0.874
			c-0.496-0.347-1.078-0.719-1.748-1.116c-0.67-0.396-1.463-0.768-2.381-1.115c-0.916-0.347-1.982-0.639-3.197-0.874
			s-2.617-0.354-4.203-0.354c-2.852,0-5.461,0.49-7.828,1.469c-2.367,0.98-4.406,2.375-6.117,4.185s-3.045,4.017-3.998,6.619
			c-0.955,2.604-1.432,5.518-1.432,8.74c0,3.322,0.477,6.285,1.432,8.889c0.953,2.603,2.256,4.804,3.904,6.601
			c1.648,1.798,3.602,3.168,5.857,4.109c2.256,0.943,4.686,1.414,7.289,1.414c1.586,0,3.014-0.094,4.277-0.279
			c1.264-0.187,2.436-0.478,3.514-0.874c1.08-0.396,2.084-0.898,3.014-1.506s1.865-1.333,2.807-2.176
			C974.361,486.943,974.771,486.758,975.168,486.758z"/>
		<path fill="#7AB800" d="M1043.709,444.472v5.877h-25.586v17.702h20.715v5.652h-20.715v18.187h25.586v5.876h-32.84v-53.294
			H1043.709z"/>
		<path fill="#7AB800" d="M1122.588,471.138c0,3.992-0.631,7.624-1.896,10.896c-1.264,3.272-3.049,6.075-5.355,8.405
			c-2.305,2.33-5.07,4.134-8.293,5.411s-6.793,1.915-10.711,1.915h-19.934v-53.294h19.934c3.918,0,7.488,0.639,10.711,1.916
			s5.988,3.087,8.293,5.43c2.307,2.343,4.092,5.15,5.355,8.424C1121.957,463.514,1122.588,467.146,1122.588,471.138z
			 M1115.188,471.138c0-3.272-0.445-6.198-1.338-8.777c-0.893-2.578-2.158-4.76-3.795-6.545c-1.635-1.785-3.619-3.148-5.949-4.091
			c-2.332-0.942-4.922-1.414-7.773-1.414h-12.682v41.616h12.682c2.852,0,5.441-0.471,7.773-1.413c2.33-0.942,4.314-2.3,5.949-4.072
			c1.637-1.772,2.902-3.948,3.795-6.527C1114.742,477.336,1115.188,474.41,1115.188,471.138z"/>
		<path fill="#7AB800" d="M1204.221,471.138c0,3.992-0.633,7.655-1.896,10.989c-1.266,3.335-3.051,6.205-5.355,8.609
			c-2.307,2.405-5.076,4.271-8.312,5.598c-3.234,1.326-6.812,1.989-10.729,1.989c-3.918,0-7.488-0.663-10.711-1.989
			c-3.225-1.326-5.988-3.192-8.293-5.598c-2.307-2.404-4.092-5.274-5.355-8.609c-1.266-3.334-1.896-6.997-1.896-10.989
			s0.631-7.655,1.896-10.99c1.264-3.334,3.049-6.21,5.355-8.628c2.305-2.417,5.068-4.295,8.293-5.634
			c3.223-1.339,6.793-2.009,10.711-2.009c3.916,0,7.494,0.67,10.729,2.009c3.236,1.339,6.006,3.217,8.312,5.634
			c2.305,2.418,4.09,5.294,5.355,8.628C1203.588,463.482,1204.221,467.146,1204.221,471.138z M1196.82,471.138
			c0-3.272-0.447-6.211-1.34-8.814s-2.156-4.803-3.793-6.601s-3.621-3.181-5.951-4.147s-4.934-1.45-7.809-1.45
			c-2.852,0-5.443,0.483-7.773,1.45s-4.32,2.35-5.969,4.147s-2.92,3.997-3.812,6.601s-1.338,5.542-1.338,8.814
			s0.445,6.205,1.338,8.795c0.893,2.592,2.164,4.786,3.812,6.583c1.648,1.798,3.639,3.174,5.969,4.128
			c2.33,0.955,4.922,1.432,7.773,1.432c2.875,0,5.479-0.477,7.809-1.432c2.33-0.954,4.314-2.33,5.951-4.128
			c1.637-1.797,2.9-3.991,3.793-6.583C1196.373,477.343,1196.82,474.41,1196.82,471.138z"/>
		<path fill="#7AB800" d="M1241.539,444.714c0.311,0.161,0.664,0.49,1.061,0.985l30.867,40.166
			c-0.074-0.645-0.123-1.271-0.148-1.879c-0.025-0.606-0.037-1.195-0.037-1.767v-37.748h6.322v53.294h-3.645
			c-0.57,0-1.047-0.099-1.432-0.298c-0.385-0.198-0.762-0.532-1.135-1.004l-30.83-40.128c0.049,0.62,0.086,1.228,0.111,1.822
			c0.023,0.595,0.037,1.141,0.037,1.637v37.971h-6.322v-53.294h3.719C1240.752,444.472,1241.229,444.553,1241.539,444.714z"/>
		<path fill="#7AB800" d="M1323.488,497.766h-7.215v-53.294h7.215V497.766z"/>
		<path fill="#7AB800" d="M1403.93,497.766h-5.578c-0.645,0-1.166-0.161-1.562-0.483s-0.693-0.731-0.893-1.228l-4.982-12.867H1367
			l-4.982,12.867c-0.174,0.446-0.473,0.844-0.893,1.19c-0.422,0.348-0.943,0.521-1.562,0.521h-5.578l21.309-53.294h7.328
			L1403.93,497.766z M1369.008,477.98h19.896l-8.367-21.682c-0.545-1.339-1.078-3.013-1.6-5.021
			c-0.271,1.017-0.539,1.952-0.799,2.808s-0.516,1.605-0.762,2.25L1369.008,477.98z"/>
	</g>
	
		<rect x="548.31" y="38.281" transform="matrix(0.8011 0.5985 -0.5985 0.8011 186.0815 -309.5263)" fill="#7AB800" width="21.012" height="173.943"/>
	
		<rect x="482.279" y="95.406" transform="matrix(0.8951 0.4459 -0.4459 0.8951 112.9156 -205.3192)" fill="#7AB800" width="21.015" height="83.787"/>
	
		<rect x="446.232" y="31.701" transform="matrix(0.9603 0.2789 -0.2789 0.9603 45.3374 -123.5175)" fill="#7AB800" width="21.019" height="131.735"/>
	<polygon fill="#7AB800" points="411.174,154.535 390.269,152.372 398.88,69.057 419.792,71.222 	"/>
	<polygon fill="#7AB800" points="351.876,153.726 344.705,60.146 365.658,58.544 372.83,152.122 	"/>
	<polygon fill="#7AB800" points="314.347,161.911 298.078,99.771 318.407,94.448 334.665,156.589 	"/>
	
		<rect x="257.79" y="142.217" transform="matrix(0.4219 0.9066 -0.9066 0.4219 299.9241 -164.9579)" fill="#7AB800" width="43.061" height="21.005"/>
	<polygon fill="#7AB800" points="246.613,197.528 236.875,183.734 254.04,171.612 263.771,185.407 	"/>
	<polygon fill="#7AB800" points="218.593,223.811 169.313,175.43 184.031,160.431 233.313,208.81 	"/>
	<polygon fill="#7AB800" points="195.712,254.668 119.461,202.38 131.27,185.002 207.521,237.29 	"/>
	<polygon fill="#7AB800" points="178.712,289.113 130.694,267.831 139.21,248.623 187.231,269.907 	"/>
	<polygon fill="#7AB800" points="25.915,291.59 168.145,326.049 173.089,305.627 30.865,271.172 	"/>
	
		<rect x="58.743" y="340.186" transform="matrix(0.9983 0.0581 -0.0581 0.9983 20.5787 -5.9119)" fill="#7AB800" width="106.29" height="21.018"/>
	
		<rect x="104.213" y="346.606" transform="matrix(0.1209 0.9927 -0.9927 0.1209 496.3312 236.3611)" fill="#7AB800" width="21.008" height="103.606"/>
	
		<rect x="152.148" y="421.181" transform="matrix(0.2964 0.9551 -0.9551 0.2964 528.2128 149.4885)" fill="#7AB800" width="21.01" height="24.089"/>
	
		<rect x="139.588" y="441.704" transform="matrix(0.462 0.8869 -0.8869 0.462 511.1251 127.9516)" fill="#7AB800" width="21.013" height="87.167"/>
	
		<rect x="161.814" y="479.278" transform="matrix(0.613 0.7901 -0.7901 0.613 482.4689 67.5101)" fill="#7AB800" width="21.01" height="93.976"/>
	
		<rect x="194.479" y="513.841" transform="matrix(0.7443 0.6678 -0.6678 0.7443 426.1664 6.2016)" fill="#7AB800" width="21.01" height="91.606"/>
	
		<rect x="244.712" y="545.394" transform="matrix(0.8516 0.5242 -0.5242 0.8516 334.8285 -49.7129)" fill="#7AB800" width="21.016" height="42.288"/>
	<polygon fill="#7AB800" points="280.483,646.164 260.911,638.519 290.855,561.831 310.427,569.477 	"/>
	
		<rect x="319.743" y="575.678" transform="matrix(0.9815 0.1916 -0.1916 0.9815 123.67 -51.9146)" fill="#7AB800" width="21.012" height="75.551"/>
	<polygon fill="#7AB800" points="385.456,633.026 364.445,632.745 365.143,580.202 386.153,580.477 	"/>
	<polygon fill="#7AB800" points="420.361,679.377 403.547,579.165 424.273,575.685 441.084,675.896 	"/>
	
		<rect x="430.742" y="586.103" transform="matrix(0.3389 0.9408 -0.9408 0.3389 866.3851 -39.6924)" fill="#7AB800" width="61.386" height="21.007"/>
	<polygon fill="#7AB800" points="476.742,556.832 552.953,686.815 571.137,676.273 494.921,546.297 	"/>
	<polygon fill="#7AB800" points="521.201,548.626 509.587,536.705 524.771,522.176 536.39,534.095 	"/>
	<polygon fill="#7AB800" points="589.805,553.131 537.415,510.203 550.737,493.949 603.128,536.875 	"/>
	<polygon fill="#7AB800" points="614.066,509.247 560.56,479.531 570.756,461.161 624.269,490.873 	"/>
	<polygon fill="#7AB800" points="603.69,453.999 577.841,445.219 584.599,425.32 610.44,434.098 	"/>
	
		<rect x="589.826" y="393.513" transform="matrix(0.9891 0.1474 -0.1474 0.9891 66.4255 -88.5422)" fill="#7AB800" width="81.873" height="21.011"/>
	<polygon fill="#7AB800" points="592.856,370.179 592.188,349.177 644.152,347.535 644.822,368.543 	"/>
	
		<rect x="609.519" y="281.845" transform="matrix(0.2096 0.9778 -0.9778 0.2096 797.7496 -357.5213)" fill="#7AB800" width="21.013" height="65.713"/>
	<polygon fill="#7AB800" points="580.549,294.647 572.546,275.221 614,258.147 621.997,277.569 	"/>
	<polygon fill="#7AB800" points="564.502,259.746 553.163,242.053 662.887,171.689 674.232,189.381 	"/>
	<polygon fill="#7AB800" points="542.484,228.262 528.166,212.89 544.743,197.449 559.054,212.824 	"/>
</g>
<g id="Layer_2">
	<g>
		<path fill="#FF0000" d="M510.696,370.529l-0.471-15.395l-46.673,1.427l45.668-9.732l-3.211-15.064l-45.691,9.736l43.215-17.734
			l-5.848-14.25l-43.175,17.718l39.321-25.136l-8.297-12.979l-39.358,25.159l34.235-31.78l-10.479-11.289l-34.231,31.776
			l28.008-37.371l-12.326-9.236l-28.007,37.371l20.887-41.768l-13.775-6.889l-20.889,41.772l13.1-44.829l-14.785-4.32
			l-13.101,44.831l4.891-46.444l-15.318-1.613l-5.063,48.084l-3.774-48.202l-15.355,1.203l3.644,46.543l-11.888-45.143
			l-14.895,3.922l11.894,45.167l-19.763-42.318l-13.955,6.518l19.759,42.309L308,254.467l-12.568,8.902l27.005,38.123
			l-33.373-32.689l-10.777,11.004l33.354,32.669l-38.649-26.196l-8.643,12.75l38.665,26.206l-42.721-18.884l-6.227,14.088
			l42.719,18.883l-45.405-10.954l-3.611,14.973l45.392,10.951l-46.613-2.676l-0.883,15.377l46.635,2.677l-46.363,5.689l1.875,15.287
			l46.373-5.69l-44.612,13.874l4.574,14.707l44.587-13.866l-41.396,21.601l7.125,13.656l41.397-21.602l-36.878,28.642l9.447,12.164
			l36.882-28.645l-31.178,34.767l11.467,10.283l31.171-34.76l-24.47,39.766l13.117,8.072l24.482-39.785l-16.987,43.512l14.348,5.602
			l16.987-43.513l-8.95,45.845l15.117,2.951l8.946-45.825l-0.622,46.688l15.4,0.205l0.623-46.72l7.724,46.082l15.191-2.547
			l-7.718-46.046l15.809,43.927l14.492-5.217l-15.815-43.942l23.403,40.415l13.33-7.719l-23.396-40.403l30.231,35.583l11.738-9.973
			l-30.24-35.594l36.101,29.62l9.77-11.908l-36.125-29.64l40.836,22.72l7.488-13.459l-40.798-22.699l44.192,15.053l4.967-14.58
			l-44.215-15.061l46.195,6.928l2.285-15.232l-46.21-6.931L510.696,370.529z M380.802,401.793h-14.304v-40.224
			c0-1.952,0.096-4.063,0.288-6.336l-18.528,35.951c-0.576,1.121-1.353,1.969-2.328,2.544c-0.977,0.576-2.088,0.864-3.336,0.864
			h-2.208c-1.248,0-2.36-0.288-3.336-0.864c-0.977-0.575-1.752-1.423-2.328-2.544l-18.624-36c0.128,1.121,0.224,2.232,0.288,3.336
			c0.064,1.104,0.097,2.121,0.097,3.049v40.224h-14.305v-69.888h12.384c0.704,0,1.32,0,1.849,0c0.527,0,1,0.08,1.416,0.24
			c0.415,0.161,0.792,0.409,1.128,0.745s0.664,0.809,0.983,1.417l18,35.509c0.641,1.219,1.256,2.483,1.849,3.797
			c0.592,1.313,1.159,2.658,1.704,4.036c0.544-1.41,1.119-2.779,1.728-4.109c0.607-1.328,1.231-2.618,1.872-3.867l17.952-35.365
			c0.319-0.608,0.648-1.081,0.984-1.417s0.711-0.584,1.128-0.745c0.415-0.16,0.888-0.24,1.416-0.24c0.527,0,1.144,0,1.848,0h12.384
			V401.793z M440.418,401.793c-0.929,0-1.721-0.063-2.376-0.192c-0.656-0.127-1.225-0.319-1.704-0.575
			c-0.48-0.256-0.896-0.568-1.248-0.937c-0.353-0.367-0.688-0.792-1.009-1.271l-15.84-24.336c-0.576-0.896-1.304-1.528-2.184-1.896
			c-0.881-0.367-2.072-0.552-3.576-0.552h-3.936v29.76h-16.225v-69.936h16.225v28.319h2.592c2.399,0,4.128-0.751,5.184-2.256
			l15.744-22.848c0.864-1.248,1.848-2.096,2.952-2.544c1.104-0.448,2.455-0.672,4.056-0.672h14.112l-20.736,28.271
			c-0.736,1.024-1.504,1.872-2.304,2.544s-1.616,1.232-2.448,1.68c1.216,0.449,2.328,1.064,3.336,1.849
			c1.009,0.784,1.928,1.832,2.761,3.144l21.119,32.448H440.418z"/>
	</g>
</g>
</svg>
