<?xml version="1.0" encoding="UTF-8" standalone="no"?>
<!DOCTYPE svg PUBLIC "-//W3C//DTD SVG 1.1//EN" "http://www.w3.org/Graphics/SVG/1.1/DTD/svg11.dtd">
<svg width="100%" height="100%" viewBox="0 0 5971 3050" version="1.1" xmlns="http://www.w3.org/2000/svg" xmlns:xlink="http://www.w3.org/1999/xlink" xml:space="preserve" style="fill-rule:evenodd;clip-rule:evenodd;stroke-linejoin:round;stroke-miterlimit:1.41421;">
    <g transform="matrix(4.16667,0,0,4.16667,0,0)">
        <path d="M510.696,370.529L510.226,355.135L463.553,356.562L509.221,346.83L506.01,331.766L460.319,341.502L503.534,323.768L497.686,309.518L454.512,327.236L493.833,302.1L485.536,289.121L446.178,314.28L480.413,282.5L469.935,271.211L435.704,302.987L463.712,265.616L451.386,256.38L423.378,293.75L444.266,251.982L430.49,245.094L409.601,286.865L422.701,242.036L407.916,237.716L394.815,282.547L399.706,236.103L384.388,234.489L379.324,282.573L375.551,234.371L360.195,235.574L363.839,282.117L351.951,236.974L337.057,240.896L348.951,286.062L329.187,243.744L315.232,250.262L334.991,292.57L308,254.467L295.432,263.369L322.437,301.492L289.063,268.804L278.286,279.808L311.64,312.477L272.99,286.281L264.348,299.031L303.013,325.237L260.292,306.354L254.065,320.441L296.785,339.325L251.38,328.371L247.769,343.344L293.161,354.294L246.548,351.618L245.665,366.995L292.3,369.673L245.937,375.361L247.812,390.648L294.184,384.958L249.572,398.832L254.146,413.539L298.734,399.673L257.338,421.274L264.463,434.931L305.86,413.329L268.982,441.971L278.43,454.135L315.311,425.49L284.134,460.257L295.601,470.54L326.772,435.78L302.302,475.546L315.419,483.618L339.901,443.833L322.914,487.346L337.262,492.947L354.248,449.435L345.299,495.279L360.416,498.23L369.362,452.405L368.739,499.093L384.14,499.298L384.763,452.578L392.486,498.66L407.678,496.113L399.96,450.067L415.77,493.994L430.262,488.777L414.447,444.835L437.85,485.25L451.18,477.531L427.784,437.129L458.015,472.712L469.753,462.739L439.513,427.145L475.614,456.766L485.384,444.857L449.259,415.218L490.095,437.938L497.583,424.479L456.785,401.78L500.977,416.833L505.943,402.253L461.729,387.192L507.924,394.12L510.209,378.888L463.999,371.957L510.696,370.529Z" style="fill:rgb(236,50,43);fill-rule:nonzero;"/>
        <path d="M797.322,252.394C787.652,252.394 782,258.938 782,269.685C782,280.543 787.652,286.976 797.322,286.976C806.916,286.976 812.568,280.543 812.568,269.685C812.568,258.938 806.916,252.394 797.322,252.394ZM797.322,297.388C780.439,297.388 769.135,285.34 769.135,269.685C769.135,254.029 780.439,242.019 797.322,242.019C814.166,242.019 825.434,254.104 825.434,269.685C825.434,285.34 814.166,297.388 797.322,297.388Z" style="fill:rgb(124,194,66);fill-rule:nonzero;"/>
        <path d="M860.322,269.201L866.867,269.201C873.412,269.201 876.09,265.929 876.09,260.313C876.09,255.368 873.189,252.021 866.867,252.021L860.322,252.021L860.322,269.201ZM860.322,278.684L860.322,296.793L847.754,296.793L847.754,242.613L866.867,242.613C882.113,242.613 888.658,250.311 888.658,260.313C888.658,271.135 881.853,278.684 866.867,278.684L860.322,278.684Z" style="fill:rgb(124,194,66);fill-rule:nonzero;"/>
        <path d="M946.451,242.613L946.451,252.281L924.213,252.281L924.213,264.925L941.244,264.925L941.244,274.222L924.213,274.222L924.213,287.125L946.451,287.125L946.451,296.793L911.57,296.793L911.57,242.613L946.451,242.613Z" style="fill:rgb(124,194,66);fill-rule:nonzero;"/>
        <path d="M983.643,244.547L1009.37,277.085C1009.19,275.002 1009.08,273.031 1009.08,271.283L1009.08,242.613L1020.16,242.613L1020.16,296.793L1013.62,296.793C1011.68,296.793 1010.45,296.31 1009.23,294.711L983.68,262.434C983.828,264.33 983.941,266.152 983.941,267.751L983.941,296.793L972.859,296.793L972.859,242.613L979.478,242.613C981.635,242.613 982.268,242.874 983.643,244.547Z" style="fill:rgb(124,194,66);fill-rule:nonzero;"/>
        <path d="M784.529,365.041L786.537,365.041C788.396,365.041 789.736,364.446 790.553,363.294L802.75,345.593C804.09,343.659 805.687,343.102 808.18,343.102L819.111,343.102L803.049,365.004C801.894,366.603 800.668,367.57 799.367,368.276C801.264,368.983 802.787,370.099 804.09,372.144L820.451,397.281L809.221,397.281C806.357,397.281 805.316,396.463 804.312,394.976L792.041,376.123C791.148,374.747 789.922,374.227 787.578,374.227L784.529,374.227L784.529,397.281L771.961,397.281L771.961,343.102L784.529,343.102L784.529,365.041Z" style="fill:rgb(124,194,66);fill-rule:nonzero;"/>
        <path d="M855.115,345.035L880.848,377.573C880.662,375.49 880.551,373.52 880.551,371.771L880.551,343.102L891.633,343.102L891.633,397.281L885.088,397.281C883.154,397.281 881.926,396.798 880.699,395.199L855.152,362.922C855.301,364.818 855.414,366.641 855.414,368.239L855.414,397.281L844.332,397.281L844.332,343.102L850.951,343.102C853.107,343.102 853.74,343.362 855.115,345.035Z" style="fill:rgb(124,194,66);fill-rule:nonzero;"/>
        <path d="M943.775,352.882C934.107,352.882 928.455,359.426 928.455,370.173C928.455,381.031 934.107,387.464 943.775,387.464C953.369,387.464 959.021,381.031 959.021,370.173C959.021,359.426 953.369,352.882 943.775,352.882ZM943.775,397.876C926.893,397.876 915.588,385.828 915.588,370.173C915.588,354.518 926.893,342.507 943.775,342.507C960.621,342.507 971.889,354.592 971.889,370.173C971.889,385.828 960.621,397.876 943.775,397.876Z" style="fill:rgb(124,194,66);fill-rule:nonzero;"/>
        <path d="M985.654,343.102L996.215,343.102C998.408,343.102 999.934,344.18 1000.38,345.816L1007.82,374.077C1008.3,375.899 1008.86,378.02 1009.12,380.287C1009.6,377.944 1010.23,375.899 1010.79,374.077L1019.57,345.816C1020.01,344.44 1021.57,343.102 1023.66,343.102L1027.37,343.102C1029.57,343.102 1030.98,344.143 1031.54,345.816L1040.24,374.077C1040.8,375.825 1041.43,377.759 1041.88,379.99C1042.29,377.796 1042.7,375.825 1043.14,374.077L1050.58,345.816C1050.99,344.366 1052.59,343.102 1054.67,343.102L1064.56,343.102L1047.83,397.281L1036.45,397.281L1026.26,363.702C1025.93,362.661 1025.52,361.397 1025.18,360.021C1024.85,361.397 1024.44,362.661 1024.1,363.702L1013.77,397.281L1002.39,397.281L985.654,343.102Z" style="fill:rgb(124,194,66);fill-rule:nonzero;"/>
        <path d="M1099.83,387.241L1119.91,387.241L1119.91,397.281L1087.26,397.281L1087.26,343.102L1099.83,343.102L1099.83,387.241Z" style="fill:rgb(124,194,66);fill-rule:nonzero;"/>
        <path d="M1181.49,343.102L1181.49,352.77L1159.26,352.77L1159.26,365.413L1176.29,365.413L1176.29,374.71L1159.26,374.71L1159.26,387.613L1181.49,387.613L1181.49,397.281L1146.61,397.281L1146.61,343.102L1181.49,343.102Z" style="fill:rgb(124,194,66);fill-rule:nonzero;"/>
        <path d="M1228.95,352.77L1220.54,352.77L1220.54,387.613L1228.95,387.613C1238.54,387.613 1244.19,380.994 1244.19,370.173C1244.19,359.426 1238.54,352.77 1228.95,352.77ZM1228.95,397.281L1207.9,397.281L1207.9,343.102L1228.95,343.102C1245.79,343.102 1257.06,354.592 1257.06,370.173C1257.06,385.828 1245.79,397.281 1228.95,397.281Z" style="fill:rgb(124,194,66);fill-rule:nonzero;"/>
        <path d="M1313.37,386.572L1313.37,378.353L1308.01,378.353C1306.41,378.353 1305.48,377.424 1305.48,376.123L1305.48,369.206L1324.75,369.206L1324.75,392.075C1319.21,396.129 1312.85,397.876 1304,397.876C1288.16,397.876 1276.33,386.051 1276.33,370.173C1276.33,353.997 1287.49,342.507 1304.96,342.507C1314.04,342.507 1320.77,345.63 1325.12,349.795L1321.47,355.336C1320.77,356.377 1319.8,357.009 1318.65,357.009C1317.9,357.009 1317.12,356.749 1316.34,356.266C1312.36,353.886 1309.57,352.882 1304.52,352.882C1295.15,352.882 1289.2,359.798 1289.2,370.173C1289.2,381.626 1295.89,388.208 1304.96,388.208C1308.42,388.208 1310.99,387.576 1313.37,386.572Z" style="fill:rgb(124,194,66);fill-rule:nonzero;"/>
        <path d="M1385.07,343.102L1385.07,352.77L1362.83,352.77L1362.83,365.413L1379.86,365.413L1379.86,374.71L1362.83,374.71L1362.83,387.613L1385.07,387.613L1385.07,397.281L1350.19,397.281L1350.19,343.102L1385.07,343.102Z" style="fill:rgb(124,194,66);fill-rule:nonzero;"/>
        <g transform="matrix(0.235777,0,0,0.232954,12.8615,32.795)">
            <path d="M3361.46,1803.3C3360.5,1804.91 3359.49,1806.11 3358.42,1806.91C3357.35,1807.71 3355.96,1808.12 3354.24,1808.12C3352.43,1808.12 3350.32,1807.21 3347.91,1805.39C3345.5,1803.57 3342.45,1801.57 3338.76,1799.37C3335.08,1797.18 3330.64,1795.17 3325.45,1793.36C3320.26,1791.54 3313.98,1790.63 3306.6,1790.63C3299.65,1790.63 3293.5,1791.57 3288.15,1793.44C3282.81,1795.31 3278.34,1797.85 3274.76,1801.06C3271.18,1804.27 3268.48,1808.04 3266.66,1812.37C3264.84,1816.7 3263.93,1821.38 3263.93,1826.4C3263.93,1832.82 3265.51,1838.14 3268.66,1842.36C3271.82,1846.59 3275.99,1850.2 3281.18,1853.19C3286.36,1856.19 3292.24,1858.78 3298.82,1860.97C3305.4,1863.16 3312.14,1865.44 3319.03,1867.79C3325.93,1870.14 3332.67,1872.79 3339.25,1875.73C3345.82,1878.67 3351.7,1882.39 3356.89,1886.88C3362.08,1891.37 3366.25,1896.88 3369.41,1903.4C3372.56,1909.93 3374.14,1917.95 3374.14,1927.47C3374.14,1937.52 3372.43,1946.96 3369,1955.78C3365.58,1964.6 3360.58,1972.28 3354.01,1978.8C3347.43,1985.32 3339.35,1990.46 3329.78,1994.2C3320.21,1997.94 3309.33,1999.81 3297.14,1999.81C3282.27,1999.81 3268.72,1997.11 3256.47,1991.71C3244.23,1986.31 3233.77,1979.01 3225.11,1969.82L3234.09,1955.06C3234.95,1953.88 3235.99,1952.89 3237.22,1952.09C3238.45,1951.29 3239.82,1950.89 3241.31,1950.89C3243.56,1950.89 3246.12,1952.09 3249.01,1954.5C3251.9,1956.9 3255.51,1959.55 3259.84,1962.44C3264.17,1965.32 3269.41,1967.97 3275.56,1970.38C3281.71,1972.78 3289.22,1973.99 3298.1,1973.99C3305.48,1973.99 3312.06,1972.97 3317.83,1970.94C3323.61,1968.91 3328.5,1966.05 3332.51,1962.36C3336.52,1958.67 3339.59,1954.26 3341.73,1949.12C3343.87,1943.99 3344.94,1938.27 3344.94,1931.96C3344.94,1925.01 3343.36,1919.31 3340.21,1914.87C3337.05,1910.43 3332.91,1906.72 3327.78,1903.72C3322.64,1900.73 3316.79,1898.19 3310.21,1896.1C3303.63,1894.02 3296.9,1891.88 3290,1889.69C3283.1,1887.5 3276.36,1884.95 3269.79,1882.07C3263.21,1879.18 3257.35,1875.44 3252.22,1870.84C3247.09,1866.24 3242.94,1860.49 3239.79,1853.59C3236.63,1846.69 3235.06,1838.17 3235.06,1828.01C3235.06,1819.88 3236.63,1812.02 3239.79,1804.42C3242.94,1796.83 3247.51,1790.1 3253.5,1784.21C3259.49,1778.33 3266.9,1773.62 3275.72,1770.1C3284.54,1766.57 3294.68,1764.8 3306.12,1764.8C3318.95,1764.8 3330.66,1766.83 3341.25,1770.9C3351.84,1774.96 3361.09,1780.84 3369,1788.54L3361.46,1803.3Z" style="fill:rgb(124,194,66);fill-rule:nonzero;"/>
            <path d="M3613.16,1767.37L3613.16,1792.72L3502.79,1792.72L3502.79,1869.07L3592.14,1869.07L3592.14,1893.46L3502.79,1893.46L3502.79,1971.9L3613.16,1971.9L3613.16,1997.25L3471.51,1997.25L3471.51,1767.37L3613.16,1767.37Z" style="fill:rgb(124,194,66);fill-rule:nonzero;"/>
            <path d="M3731.71,1767.37C3734.49,1767.37 3736.55,1767.72 3737.88,1768.41C3739.22,1769.11 3740.74,1770.52 3742.45,1772.66L3875.6,1945.91C3875.28,1943.13 3875.07,1940.43 3874.96,1937.81C3874.85,1935.19 3874.8,1932.65 3874.8,1930.19L3874.8,1767.37L3902.07,1767.37L3902.07,1997.25L3886.35,1997.25C3883.89,1997.25 3881.83,1996.82 3880.17,1995.96C3878.51,1995.11 3876.88,1993.66 3875.28,1991.63L3742.29,1818.54C3742.51,1821.22 3742.67,1823.84 3742.77,1826.4C3742.88,1828.97 3742.93,1831.32 3742.93,1833.46L3742.93,1997.25L3715.66,1997.25L3715.66,1767.37L3731.71,1767.37Z" style="fill:rgb(124,194,66);fill-rule:nonzero;"/>
            <path d="M4157.61,1767.37L4157.61,1792.72L4047.24,1792.72L4047.24,1869.07L4136.6,1869.07L4136.6,1893.46L4047.24,1893.46L4047.24,1971.9L4157.61,1971.9L4157.61,1997.25L4015.96,1997.25L4015.96,1767.37L4157.61,1767.37Z" style="fill:rgb(124,194,66);fill-rule:nonzero;"/>
            <path d="M4362.62,1974.63C4368.83,1974.63 4374.52,1974.33 4379.71,1973.75C4384.9,1973.16 4389.79,1972.28 4394.39,1971.1C4398.99,1969.92 4403.32,1968.51 4407.38,1966.85C4411.44,1965.19 4415.51,1963.29 4419.57,1961.15L4419.57,1910.46L4383.96,1910.46C4381.93,1910.46 4380.3,1909.87 4379.07,1908.7C4377.84,1907.52 4377.22,1906.08 4377.22,1904.37L4377.22,1886.72L4447.81,1886.72L4447.81,1974.95C4442.03,1979.12 4436.02,1982.76 4429.76,1985.86C4423.5,1988.96 4416.82,1991.55 4409.71,1993.64C4402.6,1995.72 4394.98,1997.27 4386.85,1998.29C4378.72,1999.31 4369.9,1999.81 4360.38,1999.81C4343.69,1999.81 4328.4,1996.95 4314.5,1991.23C4300.6,1985.51 4288.62,1977.49 4278.57,1967.17C4268.51,1956.85 4260.68,1944.47 4255.07,1930.03C4249.45,1915.59 4246.64,1899.71 4246.64,1882.39C4246.64,1864.85 4249.4,1848.86 4254.9,1834.42C4260.41,1819.99 4268.27,1807.61 4278.49,1797.29C4288.7,1786.97 4301.05,1778.97 4315.54,1773.31C4330.03,1767.64 4346.26,1764.8 4364.23,1764.8C4373.32,1764.8 4381.77,1765.47 4389.57,1766.81C4397.38,1768.14 4404.63,1770.07 4411.31,1772.58C4417.99,1775.1 4424.17,1778.14 4429.84,1781.73C4435.51,1785.31 4440.8,1789.35 4445.72,1793.84L4436.9,1807.95C4435.08,1810.84 4432.73,1812.29 4429.84,1812.29C4428.13,1812.29 4426.26,1811.7 4424.22,1810.52C4421.55,1809.02 4418.56,1807.21 4415.24,1805.07C4411.93,1802.93 4407.89,1800.87 4403.13,1798.89C4398.37,1796.91 4392.76,1795.23 4386.29,1793.84C4379.82,1792.45 4372.14,1791.75 4363.27,1791.75C4350.33,1791.75 4338.61,1793.87 4328.14,1798.09C4317.65,1802.31 4308.72,1808.36 4301.35,1816.22C4293.97,1824.08 4288.3,1833.6 4284.34,1844.77C4280.38,1855.95 4278.41,1868.49 4278.41,1882.39C4278.41,1896.93 4280.46,1909.9 4284.58,1921.29C4288.7,1932.68 4294.5,1942.33 4301.99,1950.24C4309.47,1958.16 4318.35,1964.2 4328.62,1968.37C4338.88,1972.54 4350.22,1974.63 4362.62,1974.63Z" style="fill:rgb(124,194,66);fill-rule:nonzero;"/>
            <path d="M4742.49,1997.25L4718.43,1997.25C4715.65,1997.25 4713.4,1996.55 4711.69,1995.16C4709.98,1993.77 4708.7,1992.01 4707.84,1989.87L4686.35,1934.36L4583.2,1934.36L4561.7,1989.87C4560.95,1991.79 4559.67,1993.5 4557.85,1995C4556.03,1996.5 4553.79,1997.25 4551.11,1997.25L4527.05,1997.25L4618.97,1767.37L4650.57,1767.37L4742.49,1997.25ZM4591.86,1911.9L4677.68,1911.9L4641.59,1818.38C4639.24,1812.61 4636.94,1805.39 4634.69,1796.73C4633.52,1801.11 4632.36,1805.15 4631.24,1808.84C4630.12,1812.53 4629.02,1815.76 4627.95,1818.54L4591.86,1911.9Z" style="fill:rgb(124,194,66);fill-rule:nonzero;"/>
            <path d="M4860.4,1971.1L4959.86,1971.1L4959.86,1997.25L4829.28,1997.25L4829.28,1767.37L4860.4,1767.37L4860.4,1971.1Z" style="fill:rgb(124,194,66);fill-rule:nonzero;"/>
        </g>
        <path d="M515.19,201.223L498.357,188.647L602.441,49.283L619.277,61.859L515.19,201.223Z" style="fill:rgb(124,194,66);fill-rule:nonzero;"/>
        <path d="M483.516,179.485L464.705,170.115L502.057,95.115L520.866,104.481L483.516,179.485Z" style="fill:rgb(124,194,66);fill-rule:nonzero;"/>
        <path d="M448.467,163.755L428.282,157.893L465.016,31.383L485.201,37.24L448.467,163.755Z" style="fill:rgb(124,194,66);fill-rule:nonzero;"/>
        <path d="M411.174,154.535L390.269,152.372L398.88,69.057L419.792,71.222L411.174,154.535Z" style="fill:rgb(124,194,66);fill-rule:nonzero;"/>
        <path d="M351.876,153.726L344.705,60.147L365.658,58.544L372.83,152.122L351.876,153.726Z" style="fill:rgb(124,194,66);fill-rule:nonzero;"/>
        <path d="M314.347,161.911L298.078,99.771L318.407,94.449L334.665,156.589L314.347,161.911Z" style="fill:rgb(124,194,66);fill-rule:nonzero;"/>
        <path d="M278.884,176.672L260.715,137.632L279.758,128.767L297.932,167.807L278.884,176.672Z" style="fill:rgb(124,194,66);fill-rule:nonzero;"/>
        <path d="M246.613,197.528L236.875,183.734L254.04,171.612L263.771,185.407L246.613,197.528Z" style="fill:rgb(124,194,66);fill-rule:nonzero;"/>
        <path d="M218.593,223.811L169.313,175.43L184.031,160.431L233.313,208.81L218.593,223.811Z" style="fill:rgb(124,194,66);fill-rule:nonzero;"/>
        <path d="M195.712,254.668L119.461,202.38L131.27,185.002L207.521,237.29L195.712,254.668Z" style="fill:rgb(124,194,66);fill-rule:nonzero;"/>
        <path d="M178.712,289.113L130.694,267.831L139.21,248.623L187.231,269.907L178.712,289.113Z" style="fill:rgb(124,194,66);fill-rule:nonzero;"/>
        <path d="M25.914,291.59L168.144,326.049L173.089,305.627L30.864,271.172L25.914,291.59Z" style="fill:rgb(124,194,66);fill-rule:nonzero;"/>
        <path d="M164.33,364.276L58.219,358.097L59.445,337.114L165.552,343.298L164.33,364.276Z" style="fill:rgb(124,194,66);fill-rule:nonzero;"/>
        <path d="M64.564,415.105L62.024,394.252L164.868,381.712L167.409,402.564L64.564,415.105Z" style="fill:rgb(124,194,66);fill-rule:nonzero;"/>
        <path d="M154.263,446.827L148.036,426.761L171.044,419.624L177.267,439.686L154.263,446.827Z" style="fill:rgb(124,194,66);fill-rule:nonzero;"/>
        <path d="M116.299,514.748L106.59,496.112L183.89,455.827L193.602,474.462L116.299,514.748Z" style="fill:rgb(124,194,66);fill-rule:nonzero;"/>
        <path d="M141.636,563.37L128.756,546.77L203.003,489.161L215.881,505.758L141.636,563.37Z" style="fill:rgb(124,194,66);fill-rule:nonzero;"/>
        <path d="M182.211,600.748L166.573,586.717L227.758,518.54L243.395,532.571L182.211,600.748Z" style="fill:rgb(124,194,66);fill-rule:nonzero;"/>
        <path d="M253.086,590.052L235.188,579.036L257.354,543.023L275.25,554.039L253.086,590.052Z" style="fill:rgb(124,194,66);fill-rule:nonzero;"/>
        <path d="M280.483,646.164L260.911,638.519L290.855,561.831L310.427,569.477L280.483,646.164Z" style="fill:rgb(124,194,66);fill-rule:nonzero;"/>
        <path d="M333.324,652.543L312.701,648.517L327.174,574.364L347.797,578.388L333.324,652.543Z" style="fill:rgb(124,194,66);fill-rule:nonzero;"/>
        <path d="M385.456,633.026L364.445,632.745L365.143,580.202L386.153,580.477L385.456,633.026Z" style="fill:rgb(124,194,66);fill-rule:nonzero;"/>
        <path d="M420.361,679.377L403.547,579.165L424.273,575.685L441.084,675.895L420.361,679.377Z" style="fill:rgb(124,194,66);fill-rule:nonzero;"/>
        <path d="M461.953,629.042L441.152,571.288L460.916,564.17L481.716,621.921L461.953,629.042Z" style="fill:rgb(124,194,66);fill-rule:nonzero;"/>
        <path d="M476.742,556.832L552.953,686.815L571.137,676.273L494.921,546.297L476.742,556.832Z" style="fill:rgb(124,194,66);fill-rule:nonzero;"/>
        <path d="M521.201,548.626L509.587,536.705L524.77,522.177L536.39,534.095L521.201,548.626Z" style="fill:rgb(124,194,66);fill-rule:nonzero;"/>
        <path d="M589.805,553.131L537.415,510.203L550.737,493.949L603.128,536.875L589.805,553.131Z" style="fill:rgb(124,194,66);fill-rule:nonzero;"/>
        <path d="M614.066,509.247L560.56,479.531L570.756,461.161L624.269,490.873L614.066,509.247Z" style="fill:rgb(124,194,66);fill-rule:nonzero;"/>
        <path d="M603.69,453.999L577.841,445.219L584.599,425.32L610.439,434.098L603.69,453.999Z" style="fill:rgb(124,194,66);fill-rule:nonzero;"/>
        <path d="M669.705,420.442L588.726,408.377L591.819,387.595L672.802,399.657L669.705,420.442Z" style="fill:rgb(124,194,66);fill-rule:nonzero;"/>
        <path d="M592.856,370.179L592.188,349.177L644.152,347.535L644.822,368.543L592.856,370.179Z" style="fill:rgb(124,194,66);fill-rule:nonzero;"/>
        <path d="M590.102,331.863L585.697,311.317L649.949,297.539L654.359,318.086L590.102,331.863Z" style="fill:rgb(124,194,66);fill-rule:nonzero;"/>
        <path d="M580.549,294.646L572.546,275.221L614,258.146L621.997,277.569L580.549,294.646Z" style="fill:rgb(124,194,66);fill-rule:nonzero;"/>
        <path d="M564.502,259.746L553.163,242.053L662.887,171.689L674.232,189.381L564.502,259.746Z" style="fill:rgb(124,194,66);fill-rule:nonzero;"/>
        <path d="M542.484,228.262L528.166,212.89L544.743,197.449L559.054,212.824L542.484,228.262Z" style="fill:rgb(124,194,66);fill-rule:nonzero;"/>
        <g transform="matrix(0.331079,0,0,0.306972,-147.109,-77.4964)">
            <path d="M1531.65,1373.58C1530.47,1375.93 1529.11,1377.59 1527.56,1378.56C1526.01,1379.52 1524.16,1380 1522.02,1380C1519.88,1380 1517.48,1379.17 1514.81,1377.51C1512.13,1375.85 1508.98,1374.01 1505.34,1371.98C1501.7,1369.95 1497.45,1368.1 1492.59,1366.44C1487.72,1364.79 1481.97,1363.96 1475.34,1363.96C1469.35,1363.96 1464.14,1364.68 1459.7,1366.12C1455.26,1367.57 1451.52,1369.57 1448.47,1372.14C1445.42,1374.7 1443.15,1377.78 1441.65,1381.36C1440.16,1384.94 1439.41,1388.88 1439.41,1393.15C1439.41,1398.61 1440.93,1403.15 1443.98,1406.79C1447.03,1410.42 1451.07,1413.53 1456.09,1416.09C1461.12,1418.66 1466.84,1420.96 1473.26,1422.99C1479.67,1425.02 1486.22,1427.19 1492.91,1429.49C1499.59,1431.79 1506.14,1434.46 1512.56,1437.51C1518.98,1440.56 1524.7,1444.41 1529.72,1449.06C1534.75,1453.71 1538.79,1459.4 1541.84,1466.14C1544.88,1472.88 1546.41,1481.06 1546.41,1490.69C1546.41,1501.17 1544.62,1510.98 1541.03,1520.12C1537.45,1529.27 1532.21,1537.23 1525.31,1544.03C1518.41,1550.82 1509.99,1556.16 1500.05,1560.07C1490.1,1563.97 1478.71,1565.92 1465.88,1565.92C1458.5,1565.92 1451.23,1565.2 1444.06,1563.76C1436.9,1562.31 1430.03,1560.25 1423.45,1557.58C1416.87,1554.91 1410.72,1551.7 1405,1547.95C1399.28,1544.21 1394.17,1540.04 1389.68,1535.44L1402.19,1514.75C1403.37,1513.25 1404.79,1512 1406.44,1510.98C1408.1,1509.96 1409.95,1509.45 1411.98,1509.45C1414.65,1509.45 1417.54,1510.55 1420.64,1512.74C1423.74,1514.94 1427.4,1517.37 1431.63,1520.04C1435.85,1522.72 1440.83,1525.15 1446.55,1527.34C1452.27,1529.53 1459.14,1530.63 1467.16,1530.63C1479.46,1530.63 1488.98,1527.72 1495.71,1521.89C1502.45,1516.06 1505.82,1507.69 1505.82,1496.78C1505.82,1490.69 1504.3,1485.71 1501.25,1481.86C1498.2,1478.01 1494.16,1474.78 1489.14,1472.16C1484.11,1469.54 1478.39,1467.32 1471.97,1465.5C1465.56,1463.68 1459.03,1461.7 1452.4,1459.57C1445.77,1457.43 1439.25,1454.86 1432.83,1451.87C1426.41,1448.87 1420.69,1444.97 1415.67,1440.15C1410.64,1435.34 1406.6,1429.33 1403.56,1422.11C1400.51,1414.89 1398.98,1405.99 1398.98,1395.4C1398.98,1386.95 1400.67,1378.71 1404.04,1370.69C1407.41,1362.67 1412.33,1355.56 1418.8,1349.36C1425.27,1343.16 1433.21,1338.18 1442.62,1334.44C1452.03,1330.7 1462.78,1328.83 1474.86,1328.83C1488.55,1328.83 1501.17,1330.96 1512.72,1335.24C1524.27,1339.52 1534.11,1345.51 1542.24,1353.21L1531.65,1373.58Z" style="fill:white;fill-rule:nonzero;"/>
            <path d="M1602.07,1331.39C1604,1331.39 1605.6,1331.47 1606.88,1331.63C1608.17,1331.79 1609.32,1332.11 1610.33,1332.6C1611.35,1333.08 1612.34,1333.77 1613.3,1334.68C1614.26,1335.59 1615.33,1336.79 1616.51,1338.29L1738.27,1493.41C1737.84,1489.67 1737.54,1486.01 1737.38,1482.42C1737.22,1478.84 1737.14,1475.5 1737.14,1472.4L1737.14,1331.39L1775.16,1331.39L1775.16,1563.36L1752.86,1563.36C1749.44,1563.36 1746.61,1562.82 1744.36,1561.75C1742.12,1560.68 1739.92,1558.76 1737.78,1555.98L1616.51,1401.49C1616.83,1404.92 1617.07,1408.31 1617.23,1411.68C1617.39,1415.05 1617.47,1418.12 1617.47,1420.9L1617.47,1563.36L1579.45,1563.36L1579.45,1331.39L1602.07,1331.39Z" style="fill:white;fill-rule:nonzero;"/>
        </g>
    </g>
</svg>
