<?xml version="1.0" encoding="utf-8"?>
<!-- Generator: Adobe Illustrator 18.0.0, SVG Export Plug-In . SVG Version: 6.00 Build 0)  -->
<!DOCTYPE svg PUBLIC "-//W3C//DTD SVG 1.1//EN" "http://www.w3.org/Graphics/SVG/1.1/DTD/svg11.dtd">
<svg version="1.1" id="Layer_1" xmlns="http://www.w3.org/2000/svg" xmlns:xlink="http://www.w3.org/1999/xlink" x="0px" y="0px"
	 viewBox="0 0 1616 732" enable-background="new 0 0 1616 732" xml:space="preserve">
<g>
	<path fill="#7AB800" d="M797.3,297.4c-16.9,0-28.2-12-28.2-27.7c0-15.7,11.3-27.7,28.2-27.7c16.8,0,28.1,12.1,28.1,27.7
		C825.4,285.3,814.2,297.4,797.3,297.4z M797.3,252.4c-9.7,0-15.3,6.5-15.3,17.3c0,10.9,5.7,17.3,15.3,17.3
		c9.6,0,15.2-6.4,15.2-17.3C812.6,258.9,806.9,252.4,797.3,252.4z"/>
	<path fill="#7AB800" d="M860.3,278.7v18.1h-12.6v-54.2h19.1c15.2,0,21.8,7.7,21.8,17.7c0,10.8-6.8,18.4-21.8,18.4H860.3z
		 M860.3,269.2h6.5c6.5,0,9.2-3.3,9.2-8.9c0-4.9-2.9-8.3-9.2-8.3h-6.5V269.2z"/>
	<path fill="#7AB800" d="M946.5,242.6v9.7h-22.2v12.6h17v9.3h-17v12.9h22.2v9.7h-34.9v-54.2H946.5z"/>
	<path fill="#7AB800" d="M983.6,244.5l25.7,32.5c-0.2-2.1-0.3-4.1-0.3-5.8v-28.7h11.1v54.2h-6.5c-1.9,0-3.2-0.5-4.4-2.1l-25.5-32.3
		c0.1,1.9,0.3,3.7,0.3,5.3v29h-11.1v-54.2h6.6C981.6,242.6,982.3,242.9,983.6,244.5z"/>
</g>
<g>
	<path fill="#7AB800" d="M784.5,365h2c1.9,0,3.2-0.6,4-1.7l12.2-17.7c1.3-1.9,2.9-2.5,5.4-2.5h10.9L803,365
		c-1.2,1.6-2.4,2.6-3.7,3.3c1.9,0.7,3.4,1.8,4.7,3.9l16.4,25.1h-11.2c-2.9,0-3.9-0.8-4.9-2.3L792,376.1c-0.9-1.4-2.1-1.9-4.5-1.9h-3
		v23.1H772v-54.2h12.6V365z"/>
	<path fill="#7AB800" d="M855.1,345l25.7,32.5c-0.2-2.1-0.3-4.1-0.3-5.8v-28.7h11.1v54.2h-6.5c-1.9,0-3.2-0.5-4.4-2.1l-25.5-32.3
		c0.1,1.9,0.3,3.7,0.3,5.3v29h-11.1v-54.2h6.6C853.1,343.1,853.7,343.4,855.1,345z"/>
	<path fill="#7AB800" d="M943.8,397.9c-16.9,0-28.2-12-28.2-27.7c0-15.7,11.3-27.7,28.2-27.7c16.8,0,28.1,12.1,28.1,27.7
		C971.9,385.8,960.6,397.9,943.8,397.9z M943.8,352.9c-9.7,0-15.3,6.5-15.3,17.3c0,10.9,5.7,17.3,15.3,17.3
		c9.6,0,15.2-6.4,15.2-17.3C959,359.4,953.4,352.9,943.8,352.9z"/>
	<path fill="#7AB800" d="M985.7,343.1h10.6c2.2,0,3.7,1.1,4.2,2.7l7.4,28.3c0.5,1.8,1,3.9,1.3,6.2c0.5-2.3,1.1-4.4,1.7-6.2l8.8-28.3
		c0.4-1.4,2-2.7,4.1-2.7h3.7c2.2,0,3.6,1,4.2,2.7l8.7,28.3c0.6,1.7,1.2,3.7,1.6,5.9c0.4-2.2,0.8-4.2,1.3-5.9l7.4-28.3
		c0.4-1.5,2-2.7,4.1-2.7h9.9l-16.7,54.2h-11.4l-10.2-33.6c-0.3-1-0.7-2.3-1.1-3.7c-0.3,1.4-0.7,2.6-1.1,3.7l-10.3,33.6h-11.4
		L985.7,343.1z"/>
	<path fill="#7AB800" d="M1099.8,387.2h20.1v10h-32.7v-54.2h12.6V387.2z"/>
	<path fill="#7AB800" d="M1181.5,343.1v9.7h-22.2v12.6h17v9.3h-17v12.9h22.2v9.7h-34.9v-54.2H1181.5z"/>
	<path fill="#7AB800" d="M1228.9,397.3h-21v-54.2h21c16.8,0,28.1,11.5,28.1,27.1C1257.1,385.8,1245.8,397.3,1228.9,397.3z
		 M1228.9,352.8h-8.4v34.8h8.4c9.6,0,15.2-6.6,15.2-17.4C1244.2,359.4,1238.5,352.8,1228.9,352.8z"/>
	<path fill="#7AB800" d="M1313.4,386.6v-8.2h-5.4c-1.6,0-2.5-0.9-2.5-2.2v-6.9h19.3v22.9c-5.5,4.1-11.9,5.8-20.8,5.8
		c-15.8,0-27.7-11.8-27.7-27.7c0-16.2,11.2-27.7,28.6-27.7c9.1,0,15.8,3.1,20.2,7.3l-3.6,5.5c-0.7,1-1.7,1.7-2.8,1.7
		c-0.7,0-1.5-0.3-2.3-0.7c-4-2.4-6.8-3.4-11.8-3.4c-9.4,0-15.3,6.9-15.3,17.3c0,11.5,6.7,18,15.8,18
		C1308.4,388.2,1311,387.6,1313.4,386.6z"/>
	<path fill="#7AB800" d="M1385.1,343.1v9.7h-22.2v12.6h17v9.3h-17v12.9h22.2v9.7h-34.9v-54.2H1385.1z"/>
</g>
<g>
	<path fill="#7AB800" d="M774,497.8v-53.3h17c3.3,0,6.1,0.3,8.5,1s4.3,1.6,5.8,2.8c1.5,1.2,2.7,2.6,3.4,4.4c0.7,1.7,1.1,3.7,1.1,5.8
		c0,1.3-0.2,2.6-0.6,3.8s-1,2.3-1.9,3.4c-0.8,1-1.9,2-3.1,2.8c-1.3,0.8-2.7,1.5-4.4,2c3.9,0.8,6.8,2.2,8.8,4.2c2,2,3,4.7,3,8
		c0,2.3-0.4,4.3-1.2,6.2s-2,3.5-3.6,4.8s-3.6,2.4-5.9,3.1s-5,1.1-7.9,1.1H774z M781.2,468.3h9.5c2,0,3.8-0.2,5.3-0.7
		s2.7-1.1,3.7-1.9c1-0.8,1.7-1.8,2.2-2.9s0.7-2.4,0.7-3.7c0-3.1-0.9-5.4-2.8-6.9s-4.8-2.2-8.8-2.2h-9.8V468.3z M781.2,473.5V492
		h11.5c2.1,0,3.8-0.2,5.3-0.7c1.5-0.5,2.7-1.1,3.6-2c1-0.9,1.7-1.9,2.1-3c0.4-1.2,0.7-2.5,0.7-3.9c0-2.8-1-4.9-2.9-6.5
		c-1.9-1.6-4.9-2.4-8.8-2.4H781.2z"/>
	<path fill="#7AB800" d="M877.2,444.5v5.9h-25.6v17.7h20.7v5.7h-20.7v18.2h25.6v5.9h-32.8v-53.3H877.2z"/>
	<path fill="#7AB800" d="M917.2,491.7h23.1v6.1h-30.3v-53.3h7.2V491.7z"/>
	<path fill="#7AB800" d="M994.2,492.5c1.4,0,2.8-0.1,4-0.2c1.2-0.1,2.3-0.3,3.4-0.6c1.1-0.3,2.1-0.6,3-1c0.9-0.4,1.9-0.8,2.8-1.3
		v-11.8h-8.3c-0.5,0-0.8-0.1-1.1-0.4c-0.3-0.3-0.4-0.6-0.4-1v-4.1h16.4v20.5c-1.3,1-2.7,1.8-4.2,2.5c-1.4,0.7-3,1.3-4.6,1.8
		s-3.4,0.8-5.3,1.1c-1.9,0.2-3.9,0.4-6.1,0.4c-3.9,0-7.4-0.7-10.6-2s-6-3.2-8.3-5.6c-2.3-2.4-4.1-5.3-5.4-8.6c-1.3-3.3-2-7-2-11
		c0-4.1,0.6-7.8,1.9-11.1s3.1-6.2,5.5-8.6s5.2-4.2,8.6-5.6c3.4-1.3,7.1-2,11.3-2c2.1,0,4.1,0.2,5.9,0.5c1.8,0.3,3.5,0.8,5,1.3
		c1.6,0.6,3,1.3,4.3,2.1c1.3,0.8,2.5,1.8,3.7,2.8l-2,3.3c-0.4,0.7-1,1-1.6,1c-0.4,0-0.8-0.1-1.3-0.4c-0.6-0.3-1.3-0.8-2.1-1.3
		c-0.8-0.5-1.7-1-2.8-1.4s-2.4-0.8-3.9-1.2s-3.3-0.5-5.3-0.5c-3,0-5.7,0.5-8.1,1.5c-2.4,1-4.5,2.4-6.2,4.2c-1.7,1.8-3,4-3.9,6.6
		c-0.9,2.6-1.4,5.5-1.4,8.7c0,3.4,0.5,6.4,1.4,9c1,2.6,2.3,4.9,4,6.7c1.7,1.8,3.8,3.2,6.2,4.2C988.7,492,991.4,492.5,994.2,492.5z"
		/>
	<path fill="#7AB800" d="M1055.9,497.8h-7.2v-53.3h7.2V497.8z"/>
	<path fill="#7AB800" d="M1113.3,492c2.2,0,4.2-0.4,5.9-1.1c1.7-0.7,3.2-1.8,4.4-3.1s2.1-2.9,2.8-4.8s0.9-3.9,0.9-6.1v-32.4h7.2
		v32.4c0,3.1-0.5,5.9-1.5,8.6c-1,2.6-2.4,4.9-4.2,6.8c-1.8,1.9-4,3.4-6.7,4.5c-2.6,1.1-5.6,1.6-8.9,1.6s-6.2-0.5-8.9-1.6
		s-4.9-2.6-6.7-4.5c-1.8-1.9-3.2-4.2-4.2-6.8c-1-2.6-1.5-5.5-1.5-8.6v-32.4h7.2v32.4c0,2.2,0.3,4.3,0.9,6.1s1.5,3.5,2.8,4.8
		s2.7,2.4,4.4,3.1S1111,492,1113.3,492z"/>
	<path fill="#7AB800" d="M1196.3,480.4c0.3,0.7,0.5,1.3,0.8,2c0.2-0.7,0.5-1.4,0.8-2c0.3-0.6,0.6-1.3,0.9-1.9l18-32.8
		c0.3-0.6,0.7-0.9,1-1s0.8-0.2,1.5-0.2h5.3v53.3h-6.3v-39.2c0-0.5,0-1.1,0-1.7c0-0.6,0.1-1.2,0.1-1.8l-18.3,33.3
		c-0.6,1.1-1.5,1.7-2.6,1.7h-1c-1.1,0-2-0.6-2.6-1.7l-18.7-33.4c0.1,0.6,0.1,1.3,0.2,1.9c0,0.6,0.1,1.2,0.1,1.7v39.2h-6.3v-53.3h5.3
		c0.6,0,1.1,0.1,1.5,0.2c0.3,0.1,0.7,0.5,1,1l18.4,32.8C1195.7,479.1,1196,479.7,1196.3,480.4z"/>
</g>
<rect x="548.3" y="38.3" transform="matrix(0.8011 0.5985 -0.5985 0.8011 186.0815 -309.5263)" fill="#7AB800" width="21" height="173.9"/>
<rect x="482.3" y="95.4" transform="matrix(0.8951 0.4459 -0.4459 0.8951 112.9156 -205.3192)" fill="#7AB800" width="21" height="83.8"/>
<rect x="446.2" y="31.7" transform="matrix(0.9603 0.2789 -0.2789 0.9603 45.3374 -123.5175)" fill="#7AB800" width="21" height="131.7"/>
<polygon fill="#7AB800" points="411.2,154.5 390.3,152.4 398.9,69.1 419.8,71.2 "/>
<polygon fill="#7AB800" points="351.9,153.7 344.7,60.1 365.7,58.5 372.8,152.1 "/>
<polygon fill="#7AB800" points="314.3,161.9 298.1,99.8 318.4,94.4 334.7,156.6 "/>
<rect x="257.8" y="142.2" transform="matrix(0.4219 0.9066 -0.9066 0.4219 299.9241 -164.9579)" fill="#7AB800" width="43.1" height="21"/>
<polygon fill="#7AB800" points="246.6,197.5 236.9,183.7 254,171.6 263.8,185.4 "/>
<polygon fill="#7AB800" points="218.6,223.8 169.3,175.4 184,160.4 233.3,208.8 "/>
<polygon fill="#7AB800" points="195.7,254.7 119.5,202.4 131.3,185 207.5,237.3 "/>
<polygon fill="#7AB800" points="178.7,289.1 130.7,267.8 139.2,248.6 187.2,269.9 "/>
<polygon fill="#7AB800" points="25.9,291.6 168.1,326 173.1,305.6 30.9,271.2 "/>
<rect x="58.7" y="340.2" transform="matrix(0.9983 5.813989e-02 -5.813989e-02 0.9983 20.5787 -5.9119)" fill="#7AB800" width="106.3" height="21"/>
<rect x="104.2" y="346.6" transform="matrix(0.1209 0.9927 -0.9927 0.1209 496.3312 236.3611)" fill="#7AB800" width="21" height="103.6"/>
<rect x="152.1" y="421.2" transform="matrix(0.2964 0.9551 -0.9551 0.2964 528.2128 149.4885)" fill="#7AB800" width="21" height="24.1"/>
<rect x="139.6" y="441.7" transform="matrix(0.462 0.8869 -0.8869 0.462 511.1251 127.9516)" fill="#7AB800" width="21" height="87.2"/>
<rect x="161.8" y="479.3" transform="matrix(0.613 0.7901 -0.7901 0.613 482.4689 67.5101)" fill="#7AB800" width="21" height="94"/>
<rect x="194.5" y="513.8" transform="matrix(0.7443 0.6678 -0.6678 0.7443 426.1664 6.2016)" fill="#7AB800" width="21" height="91.6"/>
<rect x="244.7" y="545.4" transform="matrix(0.8516 0.5242 -0.5242 0.8516 334.8285 -49.7129)" fill="#7AB800" width="21" height="42.3"/>
<polygon fill="#7AB800" points="280.5,646.2 260.9,638.5 290.9,561.8 310.4,569.5 "/>
<rect x="319.7" y="575.7" transform="matrix(0.9815 0.1916 -0.1916 0.9815 123.67 -51.9146)" fill="#7AB800" width="21" height="75.6"/>
<polygon fill="#7AB800" points="385.5,633 364.4,632.7 365.1,580.2 386.2,580.5 "/>
<polygon fill="#7AB800" points="420.4,679.4 403.5,579.2 424.3,575.7 441.1,675.9 "/>
<rect x="430.7" y="586.1" transform="matrix(0.3389 0.9408 -0.9408 0.3389 866.3851 -39.6924)" fill="#7AB800" width="61.4" height="21"/>
<polygon fill="#7AB800" points="476.7,556.8 553,686.8 571.1,676.3 494.9,546.3 "/>
<polygon fill="#7AB800" points="521.2,548.6 509.6,536.7 524.8,522.2 536.4,534.1 "/>
<polygon fill="#7AB800" points="589.8,553.1 537.4,510.2 550.7,493.9 603.1,536.9 "/>
<polygon fill="#7AB800" points="614.1,509.2 560.6,479.5 570.8,461.2 624.3,490.9 "/>
<polygon fill="#7AB800" points="603.7,454 577.8,445.2 584.6,425.3 610.4,434.1 "/>
<rect x="589.8" y="393.5" transform="matrix(0.9891 0.1474 -0.1474 0.9891 66.4255 -88.5422)" fill="#7AB800" width="81.9" height="21"/>
<polygon fill="#7AB800" points="592.9,370.2 592.2,349.2 644.2,347.5 644.8,368.5 "/>
<rect x="609.5" y="281.8" transform="matrix(0.2096 0.9778 -0.9778 0.2096 797.7496 -357.5213)" fill="#7AB800" width="21" height="65.7"/>
<polygon fill="#7AB800" points="580.5,294.6 572.5,275.2 614,258.1 622,277.6 "/>
<polygon fill="#7AB800" points="564.5,259.7 553.2,242.1 662.9,171.7 674.2,189.4 "/>
<polygon fill="#7AB800" points="542.5,228.3 528.2,212.9 544.7,197.4 559.1,212.8 "/>
<g>
	<path fill="#FF0000" d="M354.4,360.9c1.4-0.3,2.7-0.7,3.7-1.3c1-0.6,1.8-1.5,2.3-2.6s0.8-2.5,0.8-4.2c0-1.7-0.2-3-0.6-4.2
		c-0.4-1.1-1.1-2-1.9-2.7s-2-1.2-3.3-1.4s-2.9-0.4-4.7-0.4h-9.5v17.3h8.4C351.4,361.3,353,361.2,354.4,360.9z"/>
	<path fill="#FF0000" d="M360.8,374.3c-0.8-0.7-1.9-1.2-3.2-1.6c-1.3-0.4-3-0.6-5.1-0.6h-11.3v17.4h11.4c2.1,0,3.9-0.3,5.3-0.8
		c1.4-0.5,2.4-1.2,3.2-2.1c0.8-0.9,1.3-1.8,1.6-2.9c0.3-1.1,0.4-2.2,0.4-3.3c0-1.3-0.2-2.4-0.5-3.5
		C362.2,375.9,361.6,375,360.8,374.3z"/>
	<path fill="#FF0000" d="M510.7,370.5l-0.5-15.4l-46.7,1.4l45.7-9.7l-3.2-15.1l-45.7,9.7l43.2-17.7l-5.8-14.2l-43.2,17.7l39.3-25.1
		l-8.3-13l-39.4,25.2l34.2-31.8l-10.5-11.3L435.7,303l28-37.4l-12.3-9.2l-28,37.4l20.9-41.8l-13.8-6.9l-20.9,41.8l13.1-44.8
		l-14.8-4.3l-13.1,44.8l4.9-46.4l-15.3-1.6l-5.1,48.1l-3.8-48.2l-15.4,1.2l3.6,46.5L352,237l-14.9,3.9l11.9,45.2l-19.8-42.3l-14,6.5
		l19.8,42.3l-27-38.1l-12.6,8.9l27,38.1l-33.4-32.7l-10.8,11l33.4,32.7L273,286.3l-8.6,12.8l38.7,26.2l-42.7-18.9l-6.2,14.1
		l42.7,18.9l-45.4-11l-3.6,15l45.4,11l-46.6-2.7l-0.9,15.4l46.6,2.7l-46.4,5.7l1.9,15.3l46.4-5.7l-44.6,13.9l4.6,14.7l44.6-13.9
		l-41.4,21.6l7.1,13.7l41.4-21.6L269,442l9.4,12.2l36.9-28.6l-31.2,34.8l11.5,10.3l31.2-34.8l-24.5,39.8l13.1,8.1l24.5-39.8
		l-17,43.5l14.3,5.6l17-43.5l-8.9,45.8l15.1,3l8.9-45.8l-0.6,46.7l15.4,0.2l0.6-46.7l7.7,46.1l15.2-2.5l-7.7-46l15.8,43.9l14.5-5.2
		l-15.8-43.9l23.4,40.4l13.3-7.7l-23.4-40.4l30.2,35.6l11.7-10l-30.2-35.6l36.1,29.6l9.8-11.9l-36.1-29.6l40.8,22.7l7.5-13.5
		l-40.8-22.7l44.2,15.1l5-14.6l-44.2-15.1l46.2,6.9l2.3-15.2L464,372L510.7,370.5z M377.3,389c-1.2,2.6-2.8,4.8-5.1,6.7
		c-2.2,1.9-5,3.4-8.2,4.5c-3.3,1.1-7,1.6-11.2,1.6h-27.9v-69.9h25.7c4.8,0,8.9,0.4,12.3,1.3c3.4,0.9,6.2,2.2,8.3,3.8
		c2.1,1.6,3.7,3.6,4.7,6s1.5,4.9,1.5,7.8c0,1.6-0.2,3.1-0.7,4.5c-0.4,1.5-1.2,2.8-2.1,4.1c-1,1.3-2.2,2.4-3.7,3.5
		c-1.5,1-3.3,1.9-5.4,2.7c4.6,1.1,8,2.9,10.2,5.4c2.2,2.5,3.3,5.7,3.3,9.7C379.1,383.7,378.5,386.5,377.3,389z M432.9,344.3h-28.7
		v16.3h22v12h-22v16.7h28.7v12.5h-45v-69.9h45V344.3z"/>
</g>
</svg>
